<svg width="800" height="1400" viewBox="0 0 800 1400" xmlns="http://www.w3.org/2000/svg" preserveAspectRatio="xMidYMid slice">
  <defs>
    <linearGradient id="g1" x1="0" y1="0" x2="0" y2="1">
      <stop offset="0%" stop-color="#0d1117"/>
      <stop offset="80%" stop-color="#0f172a"/>
      <stop offset="100%" stop-color="#0f172a"/>
    </linearGradient>
    <radialGradient id="pulse" cx="0.2" cy="0.15" r="0.6">
      <stop offset="0%" stop-color="#1e3a8a" stop-opacity="0.35"/>
      <stop offset="70%" stop-color="#0f172a" stop-opacity="0"/>
    </radialGradient>
    <pattern id="grid" width="60" height="60" patternUnits="userSpaceOnUse">
      <path d="M60 0H0V60" fill="none" stroke="#1e293b" stroke-width="0.6" stroke-opacity="0.25"/>
      <circle cx="0" cy="0" r="1.5" fill="#1e3a8a" fill-opacity="0.5"/>
    </pattern>
  </defs>
  <rect width="800" height="1400" fill="url(#g1)"/>
  <rect width="800" height="1400" fill="url(#pulse)"/>
  <rect width="800" height="1400" fill="url(#grid)" opacity="0.25"/>
  <!-- Network nodes -->
  <g stroke="#1e3a8a" stroke-width="1.2" stroke-opacity="0.5" fill="#3b82f6" fill-opacity="0.5">
    <circle cx="120" cy="180" r="6"/>
    <circle cx="320" cy="260" r="5"/>
    <circle cx="580" cy="210" r="7"/>
    <circle cx="220" cy="470" r="5"/>
    <circle cx="640" cy="520" r="6"/>
    <circle cx="420" cy="760" r="5"/>
    <circle cx="140" cy="940" r="6"/>
    <circle cx="540" cy="1080" r="5"/>
    <circle cx="380" cy="1240" r="6"/>
    <path d="M120 180 L320 260 L580 210 L640 520 L420 760 L140 940 L380 1240" fill="none" stroke="#3b82f6" stroke-opacity="0.35" stroke-width="2"/>
  </g>
</svg>