<svg width="800" height="1400" viewBox="0 0 800 1400" xmlns="http://www.w3.org/2000/svg" preserveAspectRatio="xMidYMid slice">
  <defs>
    <linearGradient id="baseContact" x1="0" y1="0" x2="0" y2="1">
      <stop offset="0%" stop-color="#0d1117"/>
      <stop offset="100%" stop-color="#0f172a"/>
    </linearGradient>
    <radialGradient id="halo" cx="0.5" cy="0.2" r="0.55">
      <stop offset="0%" stop-color="#1e3a8a" stop-opacity="0.45"/>
      <stop offset="85%" stop-color="#0f172a" stop-opacity="0"/>
    </radialGradient>
    <pattern id="fineGrid" width="52" height="52" patternUnits="userSpaceOnUse">
      <path d="M52 0H0V52" fill="none" stroke="#1e293b" stroke-width="0.6" stroke-opacity="0.28"/>
      <circle cx="0" cy="0" r="1.3" fill="#3b82f6" fill-opacity="0.55"/>
    </pattern>
  </defs>
  <rect width="800" height="1400" fill="url(#baseContact)"/>
  <rect width="800" height="1400" fill="url(#fineGrid)" opacity="0.28"/>
  <rect width="800" height="1400" fill="url(#halo)"/>
  <!-- Connection arcs -->
  <g stroke="#3b82f6" stroke-width="1.8" stroke-opacity="0.45" fill="none">
    <path d="M120 300 C280 220 520 240 680 200"/>
    <path d="M160 640 C360 560 560 580 720 540"/>
    <path d="M140 1040 C340 960 540 980 720 920"/>
  </g>
  <!-- Nodes -->
  <g fill="#3b82f6" fill-opacity="0.6" stroke="#1e3a8a" stroke-width="1" stroke-opacity="0.6">
    <circle cx="680" cy="200" r="6"/>
    <circle cx="520" cy="240" r="5"/>
    <circle cx="360" cy="560" r="6"/>
    <circle cx="560" cy="980" r="6"/>
    <circle cx="160" cy="640" r="5"/>
    <circle cx="140" cy="1040" r="5"/>
  </g>
</svg>