<?xml version="1.0" encoding="UTF-8"?>
<svg version="1.1" xmlns="http://www.w3.org/2000/svg" width="3560" height="1044">
<path d="M0 0 C0.94746094 0.66386719 1.89492187 1.32773437 2.87109375 2.01171875 C40.91418221 29.56698568 63.28465272 70.17691529 71.71484375 115.875 C79.37395467 165.07220882 68.96421801 216.77911503 39.6328125 257.29296875 C13.8591318 292.15102834 -22.03231731 314.33633118 -65 321 C-100.51960813 325.52505366 -138.11942491 317.76387178 -167 296 C-176.23255814 288.76744186 -176.23255814 288.76744186 -180 285 C-180.33 332.52 -180.66 380.04 -181 429 C-209.71 429 -238.42 429 -268 429 C-268 281.49 -268 133.98 -268 -18 C-240.61 -18 -213.22 -18 -185 -18 C-184.67 -7.44 -184.34 3.12 -184 14 C-180.7 11.03 -177.4 8.06 -174 5 C-171.45388938 3.06334415 -168.9576945 1.21639587 -166.3125 -0.5625 C-165.63243896 -1.02229248 -164.95237793 -1.48208496 -164.25170898 -1.95581055 C-115.52216416 -34.35388539 -48.04742201 -34.08619274 0 0 Z M-157.5546875 82.1484375 C-176.76670533 104.55222826 -182.31731605 131.08987033 -181 160 C-179.15469063 180.29014668 -169.63405067 200.06746831 -156 215 C-155.34128906 215.72832031 -154.68257812 216.45664062 -154.00390625 217.20703125 C-139.12587604 232.863389 -118.35878214 241.44658432 -96.90625 242.03125 C-74.43966348 241.85151731 -54.72131317 232.74000097 -38.93359375 217.08984375 C-26.9627397 204.71595673 -19.19998438 189.62216042 -15 173 C-14.78730469 172.22140625 -14.57460937 171.4428125 -14.35546875 170.640625 C-7.94455032 143.89003011 -14.02562601 116.71901861 -27.53515625 93.34375 C-39.05655529 75.11490695 -57.28775734 61.69130719 -78.24169922 56.43798828 C-108.31197877 49.81413617 -136.40089628 60.17842283 -157.5546875 82.1484375 Z " fill="#FFFFFF" transform="translate(2153,433)"/>
<path d="M0 0 C30.3881417 25.62096832 48.30389568 61.92899785 55.60375977 100.63525391 C55.84932617 101.93462891 55.84932617 101.93462891 56.09985352 103.26025391 C58.58337743 117.21724782 58.86463768 131.12643661 58.85375977 145.26025391 C58.85316559 146.12680603 58.85257141 146.99335815 58.85195923 147.88616943 C58.84542662 150.37819628 58.82894471 152.86988213 58.80688477 155.36181641 C58.80248886 156.10776062 58.79809296 156.85370483 58.79356384 157.62225342 C58.73740654 161.79935256 58.29846786 165.46700534 57.60375977 169.63525391 C-24.89624023 169.63525391 -107.39624023 169.63525391 -192.39624023 169.63525391 C-185.49069235 186.89912362 -179.95907171 198.84928155 -167.39624023 211.63525391 C-166.78393555 212.26044922 -166.17163086 212.88564453 -165.54077148 213.52978516 C-149.98520157 228.22299939 -127.85265197 234.31434553 -106.86499023 233.88134766 C-88.92171789 232.60834523 -72.84221263 227.54343714 -58.39624023 216.63525391 C-57.77104492 216.16990234 -57.14584961 215.70455078 -56.50170898 215.22509766 C-53.90499536 213.18059655 -52.16598005 211.2913681 -50.31660461 208.52938843 C-48.73281781 206.62468528 -47.83258059 205.75585019 -45.42732811 205.09108353 C-42.9685063 204.8963079 -40.57383044 204.8929832 -38.10791016 204.95410156 C-37.18059082 204.9532254 -36.25327148 204.95234924 -35.29785156 204.95144653 C-32.23994007 204.95561889 -29.18423608 205.00225486 -26.12670898 205.04931641 C-24.00394387 205.06050978 -21.88116324 205.0690493 -19.75837708 205.07504272 C-14.17665664 205.09792969 -8.59587599 205.15685283 -3.01452637 205.2232666 C2.68297614 205.28469138 8.38063081 205.31205822 14.07836914 205.34228516 C25.2539118 205.40659533 36.42875758 205.50897407 47.60375977 205.63525391 C46.67667109 211.57058402 44.76043977 216.18600113 42.16625977 221.57275391 C41.49735718 222.9656665 41.49735718 222.9656665 40.81494141 224.38671875 C22.3768297 261.91023413 -10.16006982 288.2269878 -49.39624023 301.63525391 C-55.65235706 303.66619558 -61.96462689 305.26784044 -68.39624023 306.63525391 C-69.51530762 306.88082031 -69.51530762 306.88082031 -70.65698242 307.13134766 C-94.24936433 312.05957935 -122.93552132 312.39276367 -146.39624023 306.63525391 C-147.12004883 306.46896484 -147.84385742 306.30267578 -148.58959961 306.13134766 C-179.65032516 298.88295016 -206.57410691 282.59682414 -229.39624023 260.63525391 C-230.07557617 260.01908203 -230.75491211 259.40291016 -231.45483398 258.76806641 C-263.03029021 229.22761879 -279.10018085 183.51723127 -280.58374023 141.14306641 C-281.62073584 92.4791079 -263.38141309 48.00824231 -230.39624023 12.63525391 C-229.67178711 11.84505859 -228.94733398 11.05486328 -228.20092773 10.24072266 C-168.50248004 -52.39205552 -65.34288278 -53.8638473 0 0 Z M-168.09545898 60.27197266 C-179.61853289 72.10806724 -186.160553 83.9281922 -191.39624023 99.63525391 C-137.60624023 99.63525391 -83.81624023 99.63525391 -28.39624023 99.63525391 C-29.83020509 93.18241207 -31.13995045 88.3186278 -34.08374023 82.63525391 C-34.44040771 81.93956299 -34.7970752 81.24387207 -35.16455078 80.52709961 C-38.04087567 75.05371088 -41.20732172 70.20725443 -45.39624023 65.63525391 C-46.21995117 64.73162109 -47.04366211 63.82798828 -47.89233398 62.89697266 C-63.65199419 46.3772721 -84.8476871 37.53641331 -107.56030273 36.60791016 C-130.80077579 36.77357544 -151.11742532 44.18313224 -168.09545898 60.27197266 Z " fill="#FFFFFF" transform="translate(1788.396240234375,445.36474609375)"/>
<path d="M0 0 C7.81183125 6.83425887 14.46931806 14.11102803 20.86914062 22.30322266 C21.64128906 23.27388672 22.4134375 24.24455078 23.20898438 25.24462891 C50.7165468 61.57957765 61.72988616 108.80744946 55.68164062 153.74072266 C50.89405606 186.17010876 37.62590249 217.59183881 15.86914062 242.30322266 C15.12792969 243.15400391 14.38671875 244.00478516 13.62304688 244.88134766 C11.4047909 247.38793847 9.14807179 249.85176677 6.86914062 252.30322266 C6.21945312 253.01865234 5.56976562 253.73408203 4.90039062 254.47119141 C-21.43894556 282.27945211 -62.85031897 301.36612812 -101.13508606 303.41023254 C-103.20313832 303.46622654 -105.26912385 303.49348364 -107.33789062 303.50634766 C-108.09659958 303.51340729 -108.85530853 303.52046692 -109.63700867 303.52774048 C-141.22990526 303.75501153 -141.22990526 303.75501153 -155.13085938 300.30322266 C-155.94264648 300.10986328 -156.75443359 299.91650391 -157.59082031 299.71728516 C-193.96625684 290.84589529 -229.54725183 270.50873746 -252.63085938 240.49072266 C-253.10442871 239.87890137 -253.57799805 239.26708008 -254.06591797 238.63671875 C-255.42935385 236.86513534 -256.78246096 235.08626772 -258.13085938 233.30322266 C-258.7728125 232.45630859 -259.41476562 231.60939453 -260.07617188 230.73681641 C-279.53209348 203.99623579 -291.17466018 170.35445578 -292.13085938 137.30322266 C-292.17082031 136.10310547 -292.21078125 134.90298828 -292.25195312 133.66650391 C-293.02055654 88.22847844 -276.9260653 45.0516032 -246.20898438 11.62744141 C-244.78105991 10.03042063 -243.40519097 8.38579017 -242.07617188 6.70556641 C-239.14228635 3.08239452 -235.71537617 0.26798655 -232.13085938 -2.69677734 C-231.11765625 -3.53595703 -230.10445312 -4.37513672 -229.06054688 -5.23974609 C-161.14253762 -60.53748743 -65.53197669 -56.64539016 0 0 Z M-187.68505859 66.59130859 C-204.25108049 86.2064632 -211.76047952 111.88001675 -210.13085938 137.30322266 C-207.36998384 163.19218264 -195.61366868 187.47779131 -175.50585938 204.36572266 C-155.84860566 219.50060205 -131.95092903 227.52418434 -107.13085938 224.67822266 C-87.18741021 221.96409764 -70.26403076 213.33699454 -55.13085938 200.30322266 C-54.44378906 199.71927734 -53.75671875 199.13533203 -53.04882812 198.53369141 C-36.92947731 183.62234814 -26.15384582 159.74997468 -25.00610352 137.93164062 C-24.14907768 109.52964411 -31.4561718 83.89484617 -50.86914062 62.62744141 C-66.51937037 46.25831323 -88.284312 34.91492716 -111.15039062 34.06494141 C-141.70792748 33.47541543 -167.09918321 43.64204042 -187.68505859 66.59130859 Z " fill="#FFFFFF" transform="translate(854.130859375,451.69677734375)"/>
<path d="M0 0 C1.03998642 0.00323273 1.03998642 0.00323273 2.10098267 0.00653076 C45.58841037 0.22204015 88.60445585 16.17828146 119.90820312 46.88085938 C121.44710882 48.38288051 123.01127044 49.85531933 124.578125 51.328125 C157.1306044 82.35281834 173.74939881 126.06286977 175.5 170.484375 C176.32021928 214.1610514 161.24399748 256.49773988 132.375 289.3125 C131.54742188 290.27285156 130.71984375 291.23320313 129.8671875 292.22265625 C102.02829376 323.98411601 61.28920551 344.10984099 19.375 348.3125 C13.31704382 348.66133644 7.25342992 348.65379592 1.1875 348.625 C0.37007324 348.62284485 -0.44735352 348.6206897 -1.28955078 348.61846924 C-13.2896481 348.56769598 -24.92906307 348.24039854 -36.625 345.3125 C-37.45805664 345.10850586 -38.29111328 344.90451172 -39.14941406 344.69433594 C-85.26392109 333.11091132 -124.72766042 305.34284041 -149.28125 264.37109375 C-173.15813937 223.49659912 -180.10108816 175.45134069 -168.3125 129.5 C-167.46751968 126.42095724 -166.56664433 123.36329115 -165.625 120.3125 C-165.42068359 119.65008301 -165.21636719 118.98766602 -165.00585938 118.30517578 C-151.71795789 76.70138899 -120.39030958 40.26263117 -81.74365234 20.12719727 C-78.40403446 18.44839107 -75.02294147 16.86914001 -71.625 15.3125 C-70.97370117 15.00715332 -70.32240234 14.70180664 -69.65136719 14.38720703 C-60.83925089 10.29976428 -51.91477546 7.38765557 -42.5 5 C-41.54738281 4.75749512 -40.59476563 4.51499023 -39.61328125 4.26513672 C-26.49179717 1.10750067 -13.4761396 -0.05764313 0 0 Z M-57.625 100.3125 C-58.35332031 100.89515625 -59.08164063 101.4778125 -59.83203125 102.078125 C-76.66818699 116.11316901 -88.33154393 138.03949609 -91.33984375 159.7109375 C-93.58064704 188.01259 -88.1637683 213.73905305 -70.0625 236.25 C-68.59945879 237.95149954 -67.12177558 239.64059894 -65.625 241.3125 C-65.07457031 241.94542969 -64.52414063 242.57835937 -63.95703125 243.23046875 C-48.21446707 260.21688985 -24.36138811 269.17076403 -1.625 270.3125 C21.11502264 270.80444507 41.9945778 262.78295806 59.375 248.3125 C60.08785156 247.76207031 60.80070312 247.21164062 61.53515625 246.64453125 C79.81508545 231.92609919 89.0193214 208.92126317 93.0625 186.5 C95.55216062 161.17962179 89.24282706 135.36980881 73.5625 115.0625 C72.19146518 113.45764529 70.79434049 111.87479565 69.375 110.3125 C68.17617187 108.97445312 68.17617187 108.97445312 66.953125 107.609375 C51.222975 90.9484469 29.72710159 80.03762698 6.671875 78.96484375 C-17.32342117 78.36904151 -39.02620001 84.68550108 -57.625 100.3125 Z " fill="#FFFFFF" transform="translate(2432.625,406.6875)"/>
<path d="M0 0 C1.8404187 0.00737183 1.8404187 0.00737183 3.71801758 0.01489258 C13.53802335 0.14071564 22.8334392 1.00380132 32.375 3.3125 C33.43436768 3.56193359 33.43436768 3.56193359 34.51513672 3.81640625 C45.57230977 6.50538326 55.46332226 10.76129895 65.375 16.3125 C66.34953125 16.85648437 67.3240625 17.40046875 68.328125 17.9609375 C96.89471328 35.08418486 115.66683467 64.67858899 123.93701172 96.47314453 C124.50241486 98.74808974 125.04014067 101.02730042 125.5625 103.3125 C125.71750977 103.98724365 125.87251953 104.6619873 126.03222656 105.35717773 C129.15082565 119.8308067 129.65786855 133.9146495 129.60205078 148.65991211 C129.60148549 150.77047215 129.60180552 152.88103259 129.60293579 154.99159241 C129.60350571 160.67650839 129.59181028 166.36133865 129.57778788 172.04623485 C129.5652199 178.00392765 129.56410526 183.96162277 129.56173706 189.91932678 C129.55554003 201.18112363 129.53915343 212.4428813 129.51903808 223.70466095 C129.49662355 236.53426346 129.48567172 249.36386791 129.47564721 262.19348514 C129.4547855 288.56651677 129.41813164 314.93949474 129.375 341.3125 C100.995 341.3125 72.615 341.3125 43.375 341.3125 C43.3656543 335.13088135 43.35630859 328.9492627 43.34667969 322.58032227 C43.31287298 302.12847489 43.25750281 281.67672755 43.19109726 261.22496128 C43.15136998 248.82827616 43.11894547 236.43165393 43.10400391 224.03491211 C43.09095464 213.22381113 43.06390663 202.41284893 43.02038693 191.60182613 C42.99784572 185.88299898 42.9820849 180.16434251 42.98311615 174.445467 C42.98386711 169.05029654 42.9657425 163.65550237 42.93383217 158.26042938 C42.92539181 156.29220486 42.92354278 154.32393785 42.92919731 152.35570335 C42.97972206 132.04607295 40.38999376 112.8225186 25.73046875 97.5 C22.2104649 94.23100803 18.5641487 91.65045799 14.375 89.3125 C13.7253125 88.93480469 13.075625 88.55710937 12.40625 88.16796875 C-2.68844065 80.41742567 -22.71244962 80.52582783 -38.625 85.3125 C-55.68545306 91.61138126 -67.44460723 102.92245792 -75.3046875 119.21875 C-79.37067033 128.74614173 -80.77000528 138.49544676 -80.78321838 148.78501892 C-80.78815636 149.61179392 -80.79309434 150.43856892 -80.79818195 151.2903977 C-80.81347648 154.04637976 -80.82189564 156.80233866 -80.83032227 159.55834961 C-80.83990712 161.53965456 -80.84991756 163.52095748 -80.86032104 165.5022583 C-80.88731033 170.87149431 -80.9083522 176.24073905 -80.92832303 181.61000514 C-80.95021951 187.22476584 -80.97759026 192.83949979 -81.00437927 198.45423889 C-81.05425668 209.08232291 -81.09921386 219.71042181 -81.14240164 230.33853489 C-81.19181636 242.4400566 -81.24671877 254.54155148 -81.30208123 266.64304721 C-81.41582525 291.53284098 -81.52195637 316.42265947 -81.625 341.3125 C-110.005 341.3125 -138.385 341.3125 -167.625 341.3125 C-167.625 231.4225 -167.625 121.5325 -167.625 8.3125 C-140.565 8.3125 -113.505 8.3125 -85.625 8.3125 C-85.295 18.2125 -84.965 28.1125 -84.625 38.3125 C-82.583125 36.188125 -80.54125 34.06375 -78.4375 31.875 C-57.37604088 10.58710005 -29.79971835 -0.1422667 0 0 Z " fill="#FFFFFF" transform="translate(2942.625,406.6875)"/>
<path d="M0 0 C0.91217285 0.19335938 1.8243457 0.38671875 2.76416016 0.5859375 C38.25858461 8.38400058 70.88405335 26.73349109 93 56 C93.59893066 56.77851318 93.59893066 56.77851318 94.20996094 57.57275391 C103.74384283 70.02782912 110.78664762 83.31718488 116.4375 97.9375 C116.76766113 98.78900635 117.09782227 99.6405127 117.43798828 100.51782227 C119.57767611 106.27236209 120.86148573 111.97353633 122 118 C110.12609469 118.25508423 98.25284282 118.45042541 86.37675381 118.56993389 C80.86175583 118.6272997 75.34863452 118.70507269 69.8347168 118.82983398 C64.51125289 118.94952945 59.18959114 119.01515934 53.86488533 119.04364967 C51.83567995 119.06394582 49.80657129 119.10358444 47.7781353 119.16303062 C31.84174676 119.61141113 31.84174676 119.61141113 27.24456787 115.58917236 C25.44367013 112.77638305 24.20125741 110.10623262 23 107 C10.796316 91.00488019 -8.00030214 79.71914571 -28 77 C-48.67509589 75.13644203 -67.99927534 79.84493947 -84.8125 92.3125 C-86.23262445 93.51351954 -87.62720267 94.74515783 -89 96 C-90.32064453 97.18335938 -90.32064453 97.18335938 -91.66796875 98.390625 C-111.04530421 116.67213873 -120.88427773 142.45311244 -122.1875 168.7890625 C-122.59057606 193.12477987 -115.22785434 216.85080978 -100 236 C-99.03707031 237.22589844 -99.03707031 237.22589844 -98.0546875 238.4765625 C-85.1019969 253.91464023 -65.79609842 264.23290393 -45.70849609 266.22753906 C-25.25602789 267.57717278 -4.88195362 262.22348658 10.98828125 248.83203125 C11.65214844 248.22746094 12.31601563 247.62289062 13 247 C13.75667969 246.32324219 14.51335937 245.64648438 15.29296875 244.94921875 C21.45449348 239.13860163 26.20878124 232.58243752 30 225 C60.36 225 90.72 225 122 225 C120.87279907 234.01760746 120.87279907 234.01760746 119.65234375 237.375 C119.38115723 238.12434814 119.1099707 238.87369629 118.83056641 239.64575195 C118.53585449 240.42265381 118.24114258 241.19955566 117.9375 242 C117.62731934 242.8252417 117.31713867 243.6504834 116.99755859 244.50073242 C110.32029392 261.85728686 101.16649411 277.88686684 89 292 C88.16726563 292.96679688 87.33453125 293.93359375 86.4765625 294.9296875 C76.47330798 306.30354967 65.00011002 315.30247402 52 323 C51.41379883 323.34804688 50.82759766 323.69609375 50.22363281 324.0546875 C36.75221077 331.9259632 22.38817533 337.1408346 7.25 340.8125 C6.44804199 341.00739014 5.64608398 341.20228027 4.81982422 341.40307617 C-8.48828038 344.43785902 -21.58230675 345.35056704 -35.17773438 345.31567383 C-37.73351043 345.31252035 -40.28811627 345.3360564 -42.84375 345.36132812 C-58.1330839 345.42107073 -73.08114119 343.64151539 -87.75 339.1875 C-88.62430664 338.92815674 -89.49861328 338.66881348 -90.39941406 338.40161133 C-117.11630294 330.29690054 -140.07196227 316.49065967 -160 297 C-160.78503906 296.27683594 -161.57007813 295.55367187 -162.37890625 294.80859375 C-191.59865805 267.26152899 -208.58747028 223.42250219 -210.1262207 183.74536133 C-211.22404879 133.62515266 -197.92594438 85.94031682 -163.08203125 48.76171875 C-121.45466882 5.45766511 -58.77873781 -12.6223938 0 0 Z " fill="#FFFFFF" transform="translate(1358,410)"/>
<path d="M0 0 C28.38 0 56.76 0 86 0 C86 24.75 86 49.5 86 75 C105.8 75 125.6 75 146 75 C146 100.41 146 125.82 146 152 C126.2 152 106.4 152 86 152 C86.09683201 175.06179891 86.09683201 175.06179891 86.22207737 198.12339497 C86.27176345 206.37708706 86.31724863 214.6307287 86.34643555 222.88452148 C86.3695739 229.42388298 86.40314464 235.96309817 86.44870156 242.50234324 C86.47242296 245.95755098 86.4912884 249.41261575 86.49761391 252.86790276 C85.99343507 286.23044705 85.99343507 286.23044705 101 315 C106.96154585 320.68155152 113.11817501 323.76097368 121 326 C121.74378906 326.21398437 122.48757812 326.42796875 123.25390625 326.6484375 C132.06604767 328.76335144 140.88889263 328.52046803 150 329 C150 354.74 150 380.48 150 407 C118.36031427 413.32793715 81.03852976 406.34916137 54 389 C49.08385335 385.61999593 44.50688805 381.90401861 40 378 C39.25492188 377.35675781 38.50984375 376.71351563 37.7421875 376.05078125 C26.76196597 365.8040563 18.97630391 352.63616817 13 339 C12.72317383 338.37577148 12.44634766 337.75154297 12.16113281 337.10839844 C8.58473765 328.86413891 6.21273474 320.44921224 4.25 311.6875 C4.05124268 310.812146 3.85248535 309.93679199 3.64770508 309.03491211 C-0.24630421 290.50289961 -0.28133655 271.89735086 -0.22705078 253.0480957 C-0.22536524 250.27685437 -0.22671775 247.50561638 -0.22793579 244.734375 C-0.22897633 238.80658961 -0.22278762 232.87884879 -0.21146011 226.9510746 C-0.19509396 218.38088187 -0.18998584 209.81071035 -0.18748413 201.24050369 C-0.1831243 187.33048964 -0.16986208 173.42049927 -0.15087891 159.51049805 C-0.1324755 146.01115028 -0.11834093 132.51180898 -0.10986328 119.01245117 C-0.10933783 118.17809716 -0.10881239 117.34374315 -0.10827102 116.48410568 C-0.10566064 112.29772376 -0.10313329 108.11134178 -0.10064721 103.92495978 C-0.07996813 69.28328548 -0.04312749 34.64165505 0 0 Z " fill="#FFFFFF" transform="translate(3114,340)"/>
<path d="M0 0 C1.29502441 -0.0141394 1.29502441 -0.0141394 2.61621094 -0.02856445 C8.92394885 0.00337193 13.86157945 0.97231589 20.25 2.25 C20.25 29.64 20.25 57.03 20.25 85.25 C8.7 85.25 -2.85 85.25 -14.75 85.25 C-36.91389485 89.40573028 -54.72963206 95.59244146 -68.04296875 114.5078125 C-80.59579823 134.49221625 -81.87521854 157.88767312 -81.95532227 180.83862305 C-81.9649184 182.5939201 -81.97492945 184.34921492 -81.98532104 186.10450745 C-82.01218832 190.83922789 -82.03329545 195.57395812 -82.05332303 200.30871177 C-82.07529568 205.26814763 -82.10262882 210.22755397 -82.12937927 215.18696594 C-82.17915449 224.56473154 -82.22414916 233.94251366 -82.26740164 243.32031137 C-82.32617156 256.00213683 -82.39237626 268.68392337 -82.45815182 281.36571407 C-82.56148897 301.32711643 -82.65493586 321.28855255 -82.75 341.25 C-111.13 341.25 -139.51 341.25 -168.75 341.25 C-168.75 231.36 -168.75 121.47 -168.75 8.25 C-141.69 8.25 -114.63 8.25 -86.75 8.25 C-86.42 18.15 -86.09 28.05 -85.75 38.25 C-82.965625 35.341875 -82.965625 35.341875 -80.125 32.375 C-58.57596146 10.59915824 -30.43573666 0.24855317 0 0 Z " fill="#FFFFFF" transform="translate(1118.75,406.75)"/>
<path d="M0 0 C98.01 0 196.02 0 297 0 C297 29.37 297 58.74 297 89 C229.68 89 162.36 89 93 89 C93 119.36 93 149.72 93 181 C62.31 181 31.62 181 0 181 C0 121.27 0 61.54 0 0 Z " fill="#FFFFFF" transform="translate(296,296)"/>
<path d="M0 0 C28.38 0 56.76 0 86 0 C86 109.89 86 219.78 86 333 C57.62 333 29.24 333 0 333 C0 223.11 0 113.22 0 0 Z " fill="#FFFFFF" transform="translate(2642,415)"/>
<path d="M0 0 C30.69 0 61.38 0 93 0 C93 59.73 93 119.46 93 181 C62.31 181 31.62 181 0 181 C0 121.27 0 61.54 0 0 Z " fill="#FFFFFF" transform="translate(296,567)"/>
<path d="M0 0 C30.36 0 60.72 0 92 0 C92 30.36 92 60.72 92 92 C61.64 92 31.28 92 0 92 C0 61.64 0 31.28 0 0 Z " fill="#00AF9A" transform="translate(440,476)"/>
<path d="M0 0 C28.38 0 56.76 0 86 0 C86 26.73 86 53.46 86 81 C57.62 81 29.24 81 0 81 C0 54.27 0 27.54 0 0 Z " fill="#FFFFFF" transform="translate(2642,296)"/>
</svg>
