<?xml version="1.0" encoding="UTF-8"?>
<svg xmlns="http://www.w3.org/2000/svg" xmlns:xlink="http://www.w3.org/1999/xlink" width="605pt" height="605pt" viewBox="0 0 605 605" version="1.1">
<defs>
<clipPath id="clip1">
  <path d="M 312.46875 314.304688 L 323.878906 314.304688 L 323.878906 317.988281 L 312.46875 317.988281 Z M 312.46875 314.304688 "/>
</clipPath>
<filter id="alpha" filterUnits="objectBoundingBox" x="0%" y="0%" width="100%" height="100%">
  <feColorMatrix type="matrix" in="SourceGraphic" values="0 0 0 0 1 0 0 0 0 1 0 0 0 0 1 0 0 0 1 0"/>
</filter>
<mask id="mask0">
  <g filter="url(#alpha)">
<rect x="0" y="0" width="605" height="605" style="fill:rgb(0%,0%,0%);fill-opacity:0.979996;stroke:none;"/>
  </g>
</mask>
<clipPath id="clip3">
  <path d="M 0.46875 0.304688 L 11.878906 0.304688 L 11.878906 3.988281 L 0.46875 3.988281 Z M 0.46875 0.304688 "/>
</clipPath>
<clipPath id="clip2">
  <rect width="12" height="4"/>
</clipPath>
<g id="surface4" clip-path="url(#clip2)">
<g clip-path="url(#clip3)" clip-rule="nonzero">
<path style=" stroke:none;fill-rule:nonzero;fill:rgb(73.631287%,56.443787%,0%);fill-opacity:1;" d="M 0.46875 1.550781 C 4.242188 -0.238281 8.550781 -0.261719 11.878906 2.519531 C 8.3125 4.160156 3.21875 5.121094 0.46875 1.550781 "/>
</g>
</g>
</defs>
<g id="surface1">
<path style=" stroke:none;fill-rule:nonzero;fill:rgb(75.389099%,57.617188%,0%);fill-opacity:1;" d="M 605 302.5 C 605 135.433594 469.566406 0 302.5 0 C 135.433594 0 0 135.433594 0 302.5 C 0 469.566406 135.433594 605 302.5 605 C 469.566406 605 605 469.566406 605 302.5 "/>
<path style=" stroke:none;fill-rule:nonzero;fill:rgb(0%,15.281677%,40.795898%);fill-opacity:1;" d="M 592.445313 302.5 C 592.445313 142.367188 462.632813 12.554688 302.5 12.554688 C 142.367188 12.554688 12.554688 142.367188 12.554688 302.5 C 12.554688 462.632813 142.367188 592.445313 302.5 592.445313 C 462.632813 592.445313 592.445313 462.632813 592.445313 302.5 "/>
<path style=" stroke:none;fill-rule:nonzero;fill:rgb(75.389099%,57.617188%,0%);fill-opacity:1;" d="M 136.710938 453.261719 C 138.640625 463.5625 148.511719 471.191406 158.660156 472.320313 C 157.511719 467.71875 155.730469 462.96875 152.050781 459.789063 C 147.890625 455.859375 142.21875 454.171875 136.710938 453.261719 M 96.210938 395.359375 C 96.199219 399.359375 95.550781 403.578125 97.410156 407.300781 C 99.519531 412.660156 103.089844 418.609375 109.398438 419.328125 C 109.441406 415.929688 110.078125 412.359375 108.648438 409.152344 C 106.328125 403.210938 101.320313 398.910156 96.210938 395.359375 M 75.960938 333.949219 C 74.648438 337.679688 74.660156 341.679688 74.917969 345.570313 C 75.601563 351.171875 79.25 355.78125 83.449219 359.289063 C 86.761719 350.289063 83.261719 339.871094 75.960938 333.949219 M 70.21875 301.671875 C 71.308594 300.300781 72.550781 299.011719 73.371094 297.449219 C 75.519531 290.359375 73.167969 282.859375 68.949219 277.019531 C 65.582031 284.839844 66.199219 294.210938 70.21875 301.671875 M 68.050781 245.988281 C 70.28125 243.578125 72.851563 241.171875 73.558594 237.820313 C 74.582031 233.140625 74.308594 228.140625 72.371094 223.730469 C 69.167969 230.578125 64.789063 238.308594 68.050781 245.988281 M 84.851563 197.640625 C 92.988281 193.441406 94.417969 183.539063 95.101563 175.328125 C 87.582031 179.671875 83.28125 189.089844 84.851563 197.640625 M 110.480469 152.03125 C 117 148.160156 120.488281 140.789063 120.039063 133.300781 C 113.328125 136.78125 109.738281 144.671875 110.480469 152.03125 M 127.050781 111.179688 C 131.578125 107.820313 136.570313 105.140625 141.539063 102.5 C 137.199219 117.910156 135.378906 134.050781 128.859375 148.808594 C 133.488281 143.96875 134.199219 137.019531 137.308594 131.328125 C 140.371094 131.109375 143.429688 131.261719 146.488281 131.28125 C 145.789063 136.210938 144.359375 141.289063 140.929688 145.050781 C 138.191406 147.980469 135.269531 150.769531 132.058594 153.191406 C 127.480469 156.328125 121.878906 157.261719 116.660156 158.828125 C 114.511719 159.269531 113.988281 161.75 112.898438 163.339844 C 117.371094 162.460938 121.5 160.46875 125.851563 159.199219 C 130.300781 158.03125 134.25 154.5 139.101563 155.429688 C 142.851563 157.238281 141.609375 164.519531 137.230469 164.238281 C 134.320313 164.761719 132.140625 162.429688 129.480469 161.859375 C 122.828125 163.550781 116.601563 166.589844 110.640625 169.921875 C 111.269531 177.640625 107.148438 184.421875 105.5 191.710938 C 109.460938 186.859375 110.589844 180.601563 112.671875 174.878906 C 114.929688 170.410156 120.808594 172.609375 124.761719 172.191406 C 123.28125 182.21875 116.730469 191.039063 108.128906 196.210938 C 101.691406 200 94.710938 202.890625 87.441406 204.660156 C 86.917969 206.960938 86.46875 209.28125 86.167969 211.621094 C 92.808594 207.449219 99.519531 203.390625 106.191406 199.28125 C 109.03125 197.660156 112.820313 200.929688 111.929688 203.96875 C 110.691406 205.539063 109.078125 206.738281 107.558594 208.03125 C 105.351563 207.269531 103 204.921875 100.601563 206.378906 C 95.820313 208.839844 91.332031 212.011719 87.667969 215.96875 C 86.359375 223.171875 85.769531 230.558594 85.582031 237.890625 C 88.339844 232.390625 88.46875 226.179688 89.25 220.21875 C 91.082031 216.75 95.589844 217.71875 98.800781 217.53125 C 98.949219 222.191406 98.140625 226.890625 96.140625 231.128906 C 92.839844 239.570313 84.929688 244.671875 78.800781 250.878906 C 76.699219 252.761719 77.839844 255.898438 77.550781 258.359375 C 84.621094 252.078125 90.179688 244.359375 96.011719 237 C 100.71875 232.871094 106.101563 241.570313 101.679688 244.820313 C 99.03125 245.230469 96.320313 244.839844 93.660156 245.230469 C 89.667969 250.230469 85.109375 254.960938 82.429688 260.851563 C 81.039063 263.921875 82.601563 267.179688 83.300781 270.21875 C 84.878906 275.898438 84.648438 282.050781 87.160156 287.46875 C 88.082031 281.601563 87.191406 275.640625 85.851563 269.910156 C 85.519531 268.03125 85.109375 265.941406 85.96875 264.148438 C 87.859375 261.558594 91.148438 260.671875 94.070313 259.78125 C 97.101563 268.421875 96.820313 278.101563 93.75 286.691406 C 90.871094 294.058594 86.160156 300.738281 80.210938 305.96875 C 80.710938 308.152344 81.28125 310.320313 82.058594 312.421875 C 87.449219 307.730469 89.589844 300.589844 93.980469 295.089844 C 96.539063 291.449219 97.761719 286.78125 101.570313 284.121094 C 105.28125 282.839844 107.878906 286.28125 108.679688 289.488281 C 107.828125 294.238281 102.640625 295.351563 98.550781 294.902344 C 93.878906 301.539063 89.148438 308.480469 87.230469 316.480469 C 87.710938 317.910156 88.609375 319.140625 89.339844 320.449219 C 93.28125 327 94.558594 334.691406 97.808594 341.550781 C 99.230469 333.261719 95.25 325.539063 91.832031 318.289063 C 94.269531 314.820313 97.789063 312.28125 100.828125 309.351563 C 108.371094 319.820313 108.230469 334.078125 103.699219 345.738281 C 101.601563 351.839844 96.96875 356.519531 93.789063 362.011719 C 92.238281 365.941406 96.378906 368.652344 98.191406 371.621094 C 102.300781 365.921875 103.261719 358.769531 106.371094 352.570313 C 108.859375 348.039063 108.160156 341.988281 112.289063 338.390625 C 114.960938 335.691406 120.070313 338.019531 120.050781 341.652344 C 120.089844 343.71875 120.449219 346.328125 118.421875 347.628906 C 116.089844 349.089844 113.261719 349.359375 110.648438 350.019531 C 109.058594 357.671875 105.359375 364.738281 104.160156 372.488281 C 103.621094 374.78125 105.730469 376.300781 106.871094 378 C 112.21875 384.601563 115.878906 392.429688 121.390625 398.902344 C 120.621094 394.421875 118.71875 390.21875 116.730469 386.160156 C 114.71875 382.089844 111.109375 378.980469 109.5 374.699219 C 111.539063 371.359375 114.011719 368.3125 116.261719 365.128906 C 123.210938 369.789063 126.871094 378.089844 127.558594 386.230469 C 128.179688 393.78125 128.839844 401.679688 125.878906 408.859375 C 124.539063 413.328125 121.078125 417.46875 121.941406 422.359375 C 123.269531 425.828125 126.730469 427.480469 129.761719 429.152344 C 130.078125 416.730469 129.601563 404.289063 129.910156 391.878906 C 131.390625 389.710938 134.128906 388.03125 136.820313 388.921875 C 139.570313 390.820313 141.578125 394.671875 139.878906 397.890625 C 138.519531 400.289063 135.691406 401.230469 133.378906 402.480469 C 133.351563 411.570313 133.21875 420.980469 135.851563 429.75 C 143.609375 432.800781 150.210938 438.03125 156.769531 443.050781 C 158.308594 444.25 160.03125 445.179688 161.828125 445.960938 C 159.578125 441.761719 155.960938 438.511719 152.289063 435.570313 C 149.070313 432.96875 144.898438 431.550781 142.191406 428.371094 C 141.808594 423.820313 143.238281 419.371094 145.109375 415.28125 C 150.261719 417.160156 154.761719 420.351563 158.378906 424.460938 C 172.839844 440.769531 174.429688 466.28125 163.761719 485 C 162.980469 486.109375 161.410156 486.050781 160.25 486.519531 C 151.148438 488.949219 141.710938 490.128906 132.289063 490.019531 C 125.808594 490.179688 119.621094 487.871094 114.039063 484.738281 C 107.710938 480.949219 101.039063 477.121094 96.410156 471.238281 C 97.769531 466.421875 104.46875 467.078125 107.011719 463.199219 C 108.71875 460.660156 110.019531 457.839844 112.121094 455.570313 C 116.511719 461.191406 119.699219 467.941406 125.589844 472.238281 C 130.261719 475.589844 135.359375 479.171875 141.320313 479.359375 C 138.011719 476.300781 133.800781 474.421875 130.539063 471.28125 C 124.179688 465.96875 120.039063 458.710938 116.230469 451.5 C 108.730469 447.199219 99.539063 448.5625 91.238281 448.210938 C 88.21875 447.449219 88.089844 451.25 86.898438 453.089844 C 86.339844 455.050781 84 454.589844 82.449219 454.621094 C 79.730469 454.46875 78.082031 451.289063 78.519531 448.8125 C 80.839844 445.511719 83.808594 442.289063 87.789063 441.078125 C 91.539063 439.878906 95.53125 440.28125 99.410156 440.269531 C 104.761719 440.371094 109.699219 442.910156 115.039063 443.121094 C 113.5 440.191406 112.140625 437.160156 110.429688 434.320313 C 106.070313 432.859375 101.328125 433.3125 96.878906 432.152344 C 89.011719 430.371094 81.019531 428.070313 74.210938 423.578125 C 65.710938 417.671875 60.167969 408.710938 55.03125 399.941406 C 54.289063 398.46875 54.851563 396.75 54.769531 395.191406 C 58.121094 394.851563 61.5 395.128906 64.851563 394.828125 C 68 392.96875 70.539063 390.25 73.679688 388.359375 C 75.679688 397.390625 77.5 406.980469 83.460938 414.371094 C 85.609375 416.890625 88.070313 419.300781 91.28125 420.402344 C 87.449219 414.671875 83.179688 409.03125 81.53125 402.179688 C 79.300781 397.0625 79.738281 391.378906 78.769531 386.050781 C 73.601563 381.570313 66.941406 379.378906 61.417969 375.421875 C 59.871094 374.261719 57.960938 373.851563 56.109375 373.460938 C 54.140625 375.210938 52.71875 378.789063 49.570313 378.199219 C 46.46875 377.738281 45.269531 373.761719 45.75 371.050781 C 49.039063 368.089844 53.53125 366.089844 58.03125 366.820313 C 66.910156 368.960938 74.339844 374.539063 81.878906 379.402344 C 81.5 376.980469 81.359375 374.488281 80.628906 372.152344 C 77.191406 369.769531 72.941406 369.152344 69.160156 367.511719 C 61.109375 363.828125 53.25 359.179688 47.558594 352.261719 C 42.449219 345.339844 39.890625 337.019531 36.582031 329.179688 C 38.988281 324.652344 44.238281 327.578125 48.128906 327.589844 C 50.820313 326.371094 53.289063 324.710938 56.019531 323.539063 C 56.441406 329.0625 56.710938 334.628906 57.609375 340.101563 C 59.640625 345.75 61.25 352.3125 66.710938 355.699219 C 65.109375 351.121094 62.691406 346.800781 62.050781 341.929688 C 61.148438 334.929688 62.101563 327.8125 61.339844 320.8125 C 58.109375 317.5625 54.308594 314.949219 50.832031 311.988281 C 48.488281 310.128906 46.25 308 43.410156 306.941406 C 40.71875 307.691406 38.511719 310.671875 35.53125 309.75 C 33.398438 307.78125 33.21875 303.621094 35.800781 301.941406 C 37.960938 299.46875 41.46875 299.941406 44.398438 300.101563 C 53.410156 302.988281 58.511719 311.429688 66.039063 316.53125 C 65.800781 314.96875 66.28125 313.03125 64.851563 311.921875 C 59.320313 306.769531 52.398438 303.171875 47.589844 297.230469 C 39.929688 287.769531 36.96875 275.078125 37.808594 263.101563 C 40.539063 263.640625 42.761719 265.402344 45.332031 266.308594 C 48.308594 266.171875 50.941406 264.652344 53.601563 263.46875 C 54.191406 270.691406 51.738281 277.859375 53.070313 285.050781 C 53.917969 289.019531 55.441406 292.882813 57.839844 296.191406 C 56.5 287.339844 55.03125 278.191406 57.289063 269.359375 C 57.871094 266.320313 59.140625 262.652344 56.769531 260.050781 C 53.21875 255.421875 50.140625 250.191406 45.308594 246.761719 C 43.609375 247.140625 42.050781 247.949219 40.359375 248.382813 C 39.109375 247.402344 37.511719 246.261719 37.601563 244.488281 C 37.488281 242.691406 38.898438 241.339844 39.710938 239.871094 C 42 239.882813 44.371094 239.550781 46.609375 240.210938 C 51.75 244.039063 55.558594 249.300781 59.359375 254.390625 C 60.191406 255.589844 61.417969 256.402344 62.582031 257.269531 C 62.378906 255.589844 62.667969 253.671875 61.359375 252.382813 C 56.289063 246.210938 51.109375 239.808594 48.550781 232.140625 C 46.96875 227.730469 47.609375 223 47.441406 218.429688 C 47.28125 214.140625 47.910156 209.839844 49.230469 205.769531 C 52.039063 205.96875 53.808594 208.449219 56.289063 209.46875 C 58.71875 210.058594 61.25 210.140625 63.730469 210.488281 C 60.648438 216.441406 57.960938 222.75 57.179688 229.46875 C 56.808594 232.058594 57.429688 234.632813 58.460938 237 C 59.429688 230.949219 59.878906 224.589844 63.019531 219.171875 C 64.410156 215.882813 66.832031 212.980469 67.738281 209.550781 C 66.167969 204.210938 64.019531 199.058594 61.738281 194 C 59.691406 193.601563 57.648438 193.191406 55.609375 192.710938 C 54.699219 189.882813 56.761719 186.011719 60.050781 186.652344 C 62.871094 188.039063 64.949219 190.570313 66.839844 193.03125 C 70.238281 197.652344 70.03125 203.632813 71.839844 208.859375 C 73.058594 207.238281 75.359375 205.839844 74.789063 203.519531 C 74.238281 200.121094 72.101563 197.300781 70.582031 194.289063 C 65.730469 185.078125 63.46875 174.019531 66.488281 163.859375 C 67.699219 159.828125 68.441406 155.488281 70.769531 151.921875 C 71.390625 150.679688 72.75 150.789063 73.910156 150.921875 C 75.738281 152.441406 76.761719 154.761719 78.75 156.089844 C 81.300781 157.03125 84.039063 157.21875 86.679688 157.800781 C 82.917969 163.429688 78.351563 168.710938 76.46875 175.359375 C 75.628906 178.859375 73.699219 182.890625 76.289063 186.101563 C 77.410156 181.058594 78.601563 175.910156 81.28125 171.429688 C 83.460938 167.71875 86.890625 164.988281 89.21875 161.410156 C 91.050781 158.449219 91.167969 154.769531 90.480469 151.441406 C 89.71875 147.929688 89.320313 144.261719 87.699219 141.011719 C 86.320313 137.578125 80.917969 139.328125 79.910156 135.488281 C 80.660156 132.988281 83.359375 130.402344 86.121094 131.410156 C 88.859375 132.550781 90.929688 134.871094 92.558594 137.289063 C 95.628906 143.699219 95.011719 151.019531 96.449219 157.828125 C 97.539063 156.679688 98.691406 155.558594 99.582031 154.238281 C 100.148438 152.539063 99.011719 150.960938 98.441406 149.441406 C 92.011719 136.632813 93.371094 120.421875 101.238281 108.53125 C 103.859375 110.578125 105.761719 113.371094 108.289063 115.5 C 110.171875 116.152344 112.160156 116.410156 114.078125 116.882813 C 108.839844 123.941406 101.410156 131.429688 103.421875 141.078125 C 104.378906 135.882813 106.011719 130.691406 109.328125 126.480469 C 114.378906 120.46875 120.828125 115.890625 127.050781 111.179688 "/>
<path style=" stroke:none;fill-rule:nonzero;fill:rgb(75.389099%,57.617188%,0%);fill-opacity:1;" d="M 460.53125 459.710938 C 455.191406 462.949219 451.488281 468.859375 451.191406 475.121094 C 455.847656 473.550781 460.921875 472.210938 464.46875 468.601563 C 468.289063 465.0625 471 460.550781 473.488281 456.039063 C 468.96875 456.289063 464.390625 457.289063 460.53125 459.710938 M 501.179688 411.210938 C 499.550781 414.679688 500.238281 418.609375 500.28125 422.3125 C 509.949219 418.609375 514.96875 406.941406 513.070313 397.121094 C 508.140625 400.871094 503.941406 405.640625 501.179688 411.210938 M 525.230469 360.519531 C 527.308594 360.25 529.359375 359.511719 530.421875 357.550781 C 535.179688 351.660156 535.050781 343.710938 534.480469 336.570313 C 525.539063 340.660156 523.910156 351.789063 525.230469 360.519531 M 537.480469 284.570313 C 535.609375 289.230469 533.347656 294.519531 535.449219 299.488281 C 536.25 301 536.820313 303.789063 539.078125 303.261719 C 543.679688 295.980469 541.589844 287.019531 541.660156 278.921875 C 539.96875 280.558594 538.328125 282.328125 537.480469 284.570313 M 536.25 227.320313 C 532.929688 233.75 535.378906 241.480469 539.410156 246.980469 C 542.839844 247.710938 541.621094 243.53125 541.921875 241.460938 C 542.300781 236.179688 540.210938 230.851563 536.25 227.320313 M 515.269531 177.78125 C 515.078125 182.199219 514.847656 186.828125 516.671875 190.988281 C 518.078125 194.5 521.050781 196.988281 523.988281 199.21875 C 524.078125 196.058594 524.359375 192.871094 523.949219 189.730469 C 522.378906 184.96875 519.109375 180.910156 515.269531 177.78125 M 489.71875 135.101563 C 488.828125 142.191406 491.28125 151.488281 499.089844 153.5 C 499.03125 146.28125 495.597656 139.320313 489.71875 135.101563 M 469.828125 109.910156 C 469.488281 108.480469 469.558594 107 469.601563 105.539063 C 481.171875 111.988281 491.949219 120.089844 500.730469 130.058594 C 503.230469 134.238281 504.308594 139.058594 506.320313 143.46875 C 506.839844 139.371094 506.070313 135.261719 504.128906 131.621094 C 502.199219 126.679688 498 123.28125 494.878906 119.160156 C 497.421875 117.78125 500.21875 117.039063 503.089844 116.800781 C 503.828125 115.261719 504.53125 113.710938 505.25 112.171875 C 506.140625 112.101563 507.921875 111.960938 508.800781 111.890625 C 511.351563 116.851563 513.757813 121.980469 514.929688 127.460938 C 515.769531 134.558594 515.257813 141.960938 512.53125 148.628906 C 511.640625 151.070313 510.539063 153.539063 510.53125 156.179688 C 510.980469 157.660156 512.089844 158.789063 512.960938 160.050781 C 513.679688 156.339844 513.21875 152.539063 513.757813 148.820313 C 515.28125 144.078125 516.5 138.878906 520.359375 135.398438 C 522.039063 133.289063 525.089844 134.238281 527.441406 134.128906 C 528.480469 135.808594 529.21875 138.070313 527.96875 139.859375 C 526.179688 140.890625 524.089844 141.289063 522.328125 142.390625 C 521.179688 143.460938 520.988281 145.089844 520.660156 146.53125 C 519.738281 151.5 518.558594 156.429688 518.058594 161.460938 C 519.507813 164.28125 522.351563 166.058594 524.179688 168.621094 C 526.550781 171.96875 529.160156 175.261719 530.609375 179.148438 C 531.210938 182.089844 531.039063 185.128906 531.308594 188.109375 C 533.679688 187.140625 535.679688 185.300781 534.789063 182.5 C 532.730469 174.238281 527.898438 167 522.988281 160.171875 C 525.558594 159.679688 528.128906 159.160156 530.710938 158.679688 C 532.507813 155.78125 534.507813 152.898438 537.601563 151.21875 C 542.128906 160.230469 544.269531 170.441406 544.230469 180.488281 C 542.28125 189.050781 539.128906 197.460938 534.289063 204.820313 C 533.101563 206.519531 535.050781 209.589844 537.078125 209.320313 C 539.578125 203.21875 540.578125 196.300781 544.898438 191.078125 C 546.898438 188.550781 550.351563 188.929688 553.210938 189.21875 C 554.679688 190.359375 555.257813 192.210938 555.058594 194.03125 C 553.421875 196.359375 550.269531 195.839844 547.910156 196.851563 C 545.71875 200.949219 543.960938 205.289063 542.339844 209.648438 C 540.460938 214.441406 544.789063 218.378906 546.421875 222.539063 C 549.359375 227.578125 548.609375 233.78125 551.410156 238.871094 C 553.199219 229.589844 550.140625 220.28125 545.660156 212.238281 C 548.050781 212.171875 550.480469 212.359375 552.871094 212.011719 C 555.140625 210.308594 557.308594 208.441406 559.878906 207.191406 C 562.007813 213.058594 561.941406 219.339844 562.140625 225.488281 C 562.980469 234.289063 557.898438 242.238281 552.941406 249.070313 C 550.691406 252.46875 546.691406 254.921875 546.28125 259.289063 C 553.308594 254.488281 556.191406 244.71875 564.648438 241.769531 C 568.199219 240.671875 570.800781 243.21875 573.089844 245.519531 C 572.101563 247.121094 571.089844 248.699219 570.039063 250.25 C 567.878906 250.058594 565.738281 249.578125 563.570313 249.628906 C 559.171875 252.570313 556.488281 257.308594 553.308594 261.421875 C 552.191406 263.179688 550.398438 265.050781 551.039063 267.320313 C 552.257813 273.960938 553.539063 280.679688 553.28125 287.46875 C 553.21875 290.96875 551.929688 294.289063 551.601563 297.769531 C 553.609375 294.980469 555.671875 291.921875 555.988281 288.410156 C 556.351563 280.648438 555.710938 272.890625 555.46875 265.140625 C 558.519531 266.378906 561.441406 268.929688 564.960938 268.019531 C 567.28125 267.191406 569.410156 265.898438 571.71875 265.011719 C 572.257813 267.128906 573.257813 269.289063 572.757813 271.53125 C 571.25 278.710938 569.621094 285.910156 566.621094 292.648438 C 561.929688 301.691406 553.597656 307.921875 545.339844 313.5 C 543.390625 314.390625 544.058594 316.648438 543.847656 318.351563 C 550.171875 313.269531 555.578125 306.929688 562.78125 302.988281 C 566.53125 303.011719 571.25 301.539063 574.140625 304.691406 C 576.640625 306.488281 576.078125 311.421875 572.871094 312.0625 C 570.421875 313.019531 568.558594 310.578125 566.359375 310 C 561.53125 311.480469 557.757813 314.960938 553.828125 317.960938 C 551.660156 319.859375 549.257813 321.800781 548.160156 324.539063 C 547.78125 330.800781 548.210938 337.101563 547.890625 343.371094 C 547.378906 348.988281 544.289063 353.761719 541.800781 358.660156 C 547.179688 355.230469 549.53125 348.898438 551.019531 343 C 552.558594 337.179688 552.570313 331.128906 552.640625 325.148438 C 556.859375 326.589844 560.558594 331.78125 565.378906 329.601563 C 566.859375 329.050781 568.320313 328.429688 569.800781 327.859375 C 572.460938 329.578125 572.488281 332.800781 571.320313 335.460938 C 567.910156 344.050781 564.140625 352.949219 557.238281 359.371094 C 549.007813 366.621094 538.648438 370.71875 528.429688 374.300781 C 528.46875 376.761719 528.539063 379.210938 528.75 381.671875 C 534.289063 376.980469 540.398438 372.820313 547.328125 370.5 C 551.898438 368.679688 558.097656 368.0625 561.730469 372.0625 C 563.921875 373.699219 562.921875 376.691406 563.089844 379.011719 C 561.53125 379.761719 559.960938 380.480469 558.378906 381.171875 C 556.921875 379.660156 555.550781 378.050781 553.9375 376.699219 C 548.878906 377.121094 544.53125 380.101563 540.070313 382.25 C 536.929688 384 533.097656 385.328125 531.238281 388.609375 C 529.480469 396.078125 528.800781 403.871094 525.6875 410.96875 C 523.859375 415.441406 519.757813 418.449219 517.808594 422.859375 C 523.269531 420.980469 526.398438 415.949219 529.007813 411.148438 C 533.410156 404.890625 533.679688 397 535.921875 389.921875 C 538.839844 391.339844 540.21875 394.410156 542.621094 396.421875 C 546.640625 397.648438 551.789063 395.441406 554.980469 398.949219 C 555.828125 401.519531 553.757813 403.648438 552.539063 405.679688 C 548.621094 411.0625 545.28125 416.929688 540.421875 421.5625 C 536.019531 426.21875 529.890625 428.5 524.257813 431.269531 C 516.488281 434.910156 507.820313 435.449219 499.378906 435.089844 C 497.519531 438.609375 495.609375 442.121094 494.21875 445.859375 C 497.738281 445.5 500.871094 443.691406 504.300781 443.011719 C 509.339844 442.761719 514.390625 443.039063 519.4375 443.050781 C 523.648438 443 527.5 445.71875 529.769531 449.128906 C 531.800781 452.199219 529.507813 457.898438 525.371094 457.039063 C 521.960938 457.460938 521.71875 453.191406 520.839844 450.871094 C 513.109375 451.25 505.199219 449.980469 497.628906 451.96875 C 493.050781 452.910156 491.371094 457.769531 489.148438 461.289063 C 485.6875 467.871094 479.921875 472.769531 474 477.0625 C 471.710938 478.5 469.4375 480 467.6875 482.089844 C 475.570313 480.550781 482.71875 476.101563 487.949219 470.0625 C 492.03125 466.269531 494.558594 461.21875 498.410156 457.238281 C 500.308594 460.539063 500.78125 464.609375 503.308594 467.53125 C 506.140625 469.191406 509.519531 469.421875 512.648438 470.210938 C 512.671875 472.5625 512.699219 475.199219 510.421875 476.578125 C 501.699219 483.289063 492.300781 490.101563 481.238281 492.0625 C 472.007813 492.199219 462.640625 492.351563 453.648438 489.890625 C 450.480469 488.898438 446.210938 488.75 444.660156 485.289063 C 441.757813 479.269531 440.050781 472.738281 438.78125 466.210938 C 438.621094 462.28125 439.089844 458.351563 438.949219 454.421875 C 440.558594 439.011719 449.308594 422.828125 464.5 417.238281 C 466.121094 421.601563 467.609375 426.28125 467.148438 430.980469 C 460.128906 436.050781 451.339844 440.28125 447.769531 448.660156 C 452.347656 447.039063 455.289063 442.949219 459.289063 440.421875 C 463.921875 436.851563 469.160156 434.21875 474 430.980469 C 474.570313 429.570313 474.46875 428.011719 474.578125 426.53125 C 474.757813 419.539063 475.910156 412.570313 475.398438 405.570313 C 473.21875 402.46875 468.757813 400.628906 468.578125 396.390625 C 467.960938 391.550781 475.609375 388.5 478.460938 392.449219 C 480.050781 393.609375 479.71875 395.679688 479.808594 397.398438 C 479.671875 408.378906 480.050781 419.390625 479.109375 430.339844 C 483.121094 430.96875 486 427.570313 487.550781 424.320313 C 488.757813 419.171875 484.847656 414.921875 483.429688 410.269531 C 481.128906 405.3125 481.820313 399.769531 481.621094 394.480469 C 480.988281 384.328125 484.640625 373.730469 492.257813 366.8125 C 495.21875 370.039063 497.730469 373.648438 499.898438 377.449219 C 496.519531 383.25 492.429688 388.671875 489.75 394.859375 C 488.808594 396.679688 488.75 398.75 488.738281 400.769531 C 492.449219 396.25 494.398438 390.621094 497.859375 385.921875 C 499.640625 382.449219 503.4375 380.269531 504.539063 376.449219 C 505.378906 367.800781 501.328125 359.78125 497.949219 352.101563 C 494.519531 351.449219 489.988281 350.851563 489.019531 346.789063 C 486.757813 342.699219 492.757813 336.550781 496.398438 340.398438 C 500.800781 343.53125 500.558594 349.46875 502.878906 353.898438 C 505.910156 360.328125 506.910156 367.730469 511.171875 373.550781 C 513.25 370.679688 517.820313 366.820313 514.890625 363.148438 C 512.039063 358.320313 508.160156 354.109375 505.960938 348.910156 C 503.660156 342.371094 502.679688 335.390625 502.820313 328.46875 C 502.628906 322.949219 504.289063 317.25 507.828125 312.980469 C 508.160156 312.871094 508.800781 312.648438 509.121094 312.539063 C 511.988281 314.96875 514.769531 317.589844 517.171875 320.488281 C 515.050781 328.03125 509.769531 335.03125 511 343.238281 C 514.75 337.148438 516.058594 329.960938 519.558594 323.738281 C 520.738281 321.078125 523.171875 318.230469 521.570313 315.21875 C 518.738281 308.910156 514.859375 303.140625 511.449219 297.128906 C 509.128906 297.160156 506.820313 297.199219 504.519531 297.21875 C 502.589844 295.101563 500.160156 292.828125 501.121094 289.660156 C 502.660156 287.429688 506.097656 284.589844 508.578125 287.148438 C 512.109375 289.980469 512.757813 294.828125 515.597656 298.21875 C 519.75 303.390625 522.429688 309.539063 526.699219 314.628906 C 527.859375 312.730469 529.070313 310.75 529.25 308.480469 C 526.507813 304.328125 522.25 301.378906 519.800781 297.011719 C 516.769531 291.609375 514.109375 285.800781 513.621094 279.550781 C 513.378906 273.511719 513.078125 267.210938 515.660156 261.570313 C 518.5 263.25 521.53125 264.761719 523.9375 267.058594 C 524.179688 274.75 519.820313 282.539063 522.640625 290.140625 C 525.230469 281.628906 525.078125 272.449219 528.789063 264.230469 C 525.050781 258.441406 520.589844 253.171875 516.289063 247.808594 C 513.058594 247.75 508.757813 249.480469 506.660156 246.089844 C 502.691406 242.460938 509.800781 234.628906 513.230469 239.519531 C 518.539063 245.578125 523.289063 252.140625 528.71875 258.101563 C 529.71875 259.679688 531.71875 259.148438 533.300781 259.378906 C 533.078125 257.800781 533.371094 255.929688 532.089844 254.730469 C 527.96875 249.851563 522.320313 246.480469 518.53125 241.300781 C 513.71875 235.058594 510.339844 227.328125 510.738281 219.328125 C 513.988281 219.808594 519.03125 219.730469 519.75 223.859375 C 520.46875 229.351563 520.808594 235.089844 523.75 239.960938 C 524.738281 232.269531 523.058594 224.609375 521.898438 217.050781 C 517.890625 213.949219 513.589844 211.238281 509.421875 208.371094 C 506.109375 206.019531 501.75 211.449219 498.839844 207.988281 C 495.730469 205.660156 498.648438 200.539063 502.140625 201.429688 C 509.828125 204.378906 515.730469 210.789063 523.539063 213.480469 C 523.25 211.128906 523.238281 208.25 520.738281 207.109375 C 513.007813 203.191406 504.03125 201.378906 497.53125 195.289063 C 490.839844 190.46875 486.191406 183.078125 484.878906 174.929688 C 488.398438 174.898438 491.929688 174.910156 495.46875 174.878906 C 497.96875 181.800781 499.878906 189.148438 503.96875 195.339844 C 504.148438 190.46875 501.929688 185.96875 500.398438 181.46875 C 499.097656 178.429688 499.050781 175.050781 497.871094 171.988281 C 493.289063 167.878906 487.109375 166.140625 481.410156 164.171875 C 477.628906 162.238281 475.359375 168.039063 471.46875 166.980469 C 469.691406 165.289063 466.789063 162.691406 468.847656 160.148438 C 470.191406 158.460938 472.621094 156.25 474.847656 157.710938 C 481.96875 161.160156 489.339844 164.140625 497.019531 166.078125 C 496.671875 164.738281 496.230469 163.429688 495.691406 162.171875 C 490.378906 158.78125 483.328125 159.570313 478.308594 155.570313 C 471.140625 150.261719 463.921875 143.46875 462.628906 134.160156 C 465.847656 134.089844 469.078125 134.089844 472.300781 134.121094 C 474.199219 139.820313 475.519531 146.128906 479.847656 150.570313 C 479.609375 145.699219 477.339844 141.289063 475.960938 136.691406 C 473.378906 127.898438 471.691406 118.878906 469.828125 109.910156 "/>
<path style=" stroke:none;fill-rule:nonzero;fill:rgb(75.389099%,57.617188%,0%);fill-opacity:1;" d="M 425.820313 437.089844 C 431.859375 435.640625 434.757813 446.460938 429.109375 448.679688 C 425.320313 450.359375 420.980469 446.390625 421.257813 442.511719 C 420.980469 439.859375 423.589844 437.902344 425.820313 437.089844 "/>
<path style=" stroke:none;fill-rule:nonzero;fill:rgb(75.389099%,57.617188%,0%);fill-opacity:1;" d="M 180.121094 438.191406 C 182.488281 437.378906 185.910156 436.921875 187.390625 439.46875 C 190.46875 443.539063 186.671875 449.789063 181.671875 449.140625 C 179.300781 448.101563 178.101563 445.519531 176.578125 443.5625 C 177.648438 441.710938 178.53125 439.671875 180.121094 438.191406 "/>
<path style=" stroke:none;fill-rule:nonzero;fill:rgb(75.389099%,57.617188%,0%);fill-opacity:1;" d="M 400.148438 463.480469 C 398.800781 456.859375 404.988281 450.570313 411.507813 450.601563 C 412.109375 459.980469 410 470.257813 415.0625 478.757813 C 416.148438 481.019531 418.3125 482.390625 420.519531 483.398438 C 420.570313 474.460938 415.230469 466.410156 415.949219 457.410156 C 415.78125 454.5625 417.121094 451.988281 418.328125 449.507813 C 425.0625 452.121094 425.96875 460.210938 426.609375 466.429688 C 426.359375 477.0625 428.328125 488.988281 421.449219 498.101563 C 416 499 412.640625 493.789063 410.007813 489.839844 C 405.410156 481.648438 401.441406 472.851563 400.148438 463.480469 "/>
<path style=" stroke:none;fill-rule:nonzero;fill:rgb(75.389099%,57.617188%,0%);fill-opacity:1;" d="M 190.289063 462.5625 C 191.851563 458.410156 196.128906 456.007813 200.210938 454.890625 C 200.128906 462.839844 198.320313 471.378906 202.019531 478.820313 C 203.230469 481.492188 205.550781 483.359375 207.789063 485.148438 C 208.199219 481.191406 207.210938 477.339844 205.96875 473.628906 C 204.199219 468.5625 203.671875 463.039063 204.558594 457.75 C 205.019531 455.429688 208.820313 454.757813 209.800781 456.992188 C 212.910156 461.910156 213.371094 467.871094 213.941406 473.507813 C 214.191406 479.808594 213.941406 486.21875 212.390625 492.351563 C 211.390625 494.878906 209.679688 498.460938 206.410156 497.980469 C 204.019531 498.339844 202.609375 496.078125 201.148438 494.609375 C 197.230469 489.480469 194.261719 483.601563 192.441406 477.398438 C 191.058594 472.601563 189.289063 467.621094 190.289063 462.5625 "/>
<path style=" stroke:none;fill-rule:nonzero;fill:rgb(75.389099%,57.617188%,0%);fill-opacity:1;" d="M 162.421875 496.628906 C 164.019531 495.53125 165.359375 493.589844 167.441406 493.53125 C 170.628906 493.109375 173.730469 496.21875 173.269531 499.410156 C 173.421875 502.328125 170.378906 503.949219 168.179688 505.167969 C 163.96875 504.839844 161.859375 500.449219 162.421875 496.628906 "/>
<path style=" stroke:none;fill-rule:nonzero;fill:rgb(75.389099%,57.617188%,0%);fill-opacity:1;" d="M 436.300781 498.550781 C 437.160156 496.070313 439.3125 493.25 442.261719 493.550781 C 445.089844 493.5625 446.839844 496.351563 447.96875 498.609375 C 447.550781 501.300781 445.539063 503.328125 443.929688 505.378906 C 440.21875 505.21875 436.609375 502.390625 436.300781 498.550781 "/>
<path style=" stroke:none;fill-rule:nonzero;fill:rgb(75.389099%,57.617188%,0%);fill-opacity:1;" d="M 215.601563 507.691406 C 222.628906 505.5 229.949219 503.800781 237.359375 504.140625 C 261.261719 504.320313 283.671875 513.917969 304.738281 524.332031 C 309.179688 526.300781 312.570313 522.050781 316.410156 520.628906 C 322.058594 518.410156 327.621094 516 333.160156 513.53125 C 342.511719 510.75 351.53125 506.5 361.351563 505.570313 C 368.289063 504.53125 375.300781 503.769531 382.339844 504.230469 C 389.5 505.082031 396.441406 507.140625 403.488281 508.558594 C 407.601563 509.621094 410.859375 506.609375 414.371094 505.109375 C 422.03125 504.339844 429.621094 508.320313 434.839844 513.71875 C 432.96875 514.960938 430.96875 516.019531 429.179688 517.378906 C 428.21875 519.640625 427.878906 522.339844 425.570313 523.730469 C 416.488281 530 405.121094 531.53125 394.351563 531.789063 C 387.601563 530.941406 380.589844 530.441406 374.421875 527.320313 C 369.480469 524.890625 364.570313 522.332031 360.050781 519.179688 C 367.460938 516.691406 375.410156 516.902344 383.039063 515.488281 C 384.808594 515.179688 386.328125 514.199219 387.890625 513.371094 C 376.671875 509.628906 364.550781 511.191406 353.550781 514.871094 C 344.5 518.597656 335.148438 521.550781 326.03125 525.097656 C 322.640625 526.460938 318.921875 527.289063 316.160156 529.832031 C 323.191406 534.167969 330.679688 537.730469 337.671875 542.160156 C 341.578125 544.699219 346.210938 546.308594 349.460938 549.769531 C 349.929688 553.300781 348.648438 556.75 348.371094 560.25 C 335.800781 549.78125 321.960938 540.78125 307.308594 533.53125 C 292.941406 540.460938 280.53125 550.832031 267.238281 559.582031 C 266.378906 556.320313 265.308594 553.082031 264.929688 549.730469 C 267.210938 547.667969 269.949219 546.269531 272.578125 544.730469 C 281.050781 539.582031 289.539063 534.417969 298.429688 530.039063 C 297.609375 527.917969 295.210938 527.339844 293.359375 526.480469 C 281.398438 522.167969 269.46875 517.75 257.480469 513.539063 C 247.691406 511.902344 237.210938 509.210938 227.660156 513.402344 C 236.078125 517.679688 246.089844 515.769531 254.75 519.25 C 248.269531 523.167969 241.960938 527.738281 234.550781 529.757813 C 219.421875 534.140625 202.589844 531.738281 189.101563 523.710938 C 187.21875 521.789063 186.738281 518.929688 185.03125 516.902344 C 183.371094 515.800781 181.488281 515.070313 179.75 514.109375 C 183.300781 509.097656 189.5 506.539063 195.308594 505.160156 C 202.351563 503.597656 208.699219 510.660156 215.601563 507.691406 "/>
<path style=" stroke:none;fill-rule:nonzero;fill:rgb(74.804688%,57.226563%,0%);fill-opacity:1;" d="M 302.828125 469.949219 C 304.691406 465.851563 308.878906 463.710938 312.828125 462.101563 C 312.972656 463.558594 313.101563 465.019531 313.199219 466.5 C 310.039063 468.390625 306.511719 469.570313 302.828125 469.949219 "/>
<path style=" stroke:none;fill-rule:nonzero;fill:rgb(75.389099%,57.617188%,0%);fill-opacity:1;" d="M 364.390625 453.773438 C 363.878906 454.792969 363.277344 457.039063 362.585938 460.511719 C 361.5625 465.449219 360.960938 468.265625 360.78125 468.964844 C 359.9375 472.355469 357.925781 475.148438 354.753906 477.34375 C 354.445313 477.554688 354.214844 477.683594 354.0625 477.730469 L 353.757813 477.640625 C 353.730469 477.542969 353.78125 477.382813 353.910156 477.160156 C 354.574219 475.933594 355.175781 473.828125 355.714844 470.84375 C 356.328125 467.578125 356.929688 464.3125 357.519531 461.046875 C 357.824219 459.535156 359.691406 457.085938 363.121094 453.699219 C 363.582031 453.230469 363.96875 453 364.273438 453 C 364.453125 453 364.542969 453.089844 364.542969 453.273438 C 364.542969 453.410156 364.492188 453.578125 364.390625 453.773438 M 348.996094 464.152344 C 347.679688 465.839844 346.242188 467.039063 344.675781 467.753906 L 344.675781 467.878906 C 343.78125 468.257813 343.179688 468.503906 342.871094 468.613281 C 342 468.933594 341.207031 469.144531 340.492188 469.242188 C 339.980469 469.3125 339.320313 469.488281 338.515625 469.765625 C 337.707031 470.042969 337.035156 470.214844 336.5 470.289063 C 335.015625 470.488281 334.066406 470.714844 333.660156 470.972656 C 329.257813 473.808594 326.070313 475.269531 324.101563 475.355469 C 323.050781 475.402344 322.039063 475.378906 321.066406 475.28125 C 319.890625 475.171875 318.789063 475.117188 317.765625 475.117188 C 314.003906 475.117188 310.410156 475.605469 306.980469 476.589844 C 302.320313 477.902344 297.367188 480.222656 292.125 483.550781 C 285.265625 487.894531 276.511719 491.234375 265.867188 493.566406 C 265.429688 493.667969 265.058594 493.714844 264.753906 493.714844 C 264.320313 493.714844 264.101563 493.644531 264.101563 493.496094 C 264.101563 493.347656 264.34375 493.195313 264.828125 493.035156 C 277.574219 488.960938 286.992188 484.679688 293.082031 480.199219 C 297.230469 477.140625 301.847656 474.613281 306.941406 472.609375 C 312.851563 470.289063 318.394531 469.128906 323.5625 469.128906 C 324.328125 469.128906 325.234375 469.1875 326.269531 469.296875 C 327.304688 469.40625 328.246094 469.460938 329.089844 469.460938 C 330.984375 469.460938 332.6875 469.03125 334.195313 468.171875 C 334.605469 467.902344 335.015625 467.636719 335.425781 467.371094 C 335.832031 467.109375 336.191406 466.976563 336.5 466.976563 L 337.171875 467.085938 L 337.804688 467.195313 C 338.085938 467.195313 338.46875 467.121094 338.957031 466.976563 C 339.699219 466.742188 340.339844 466.398438 340.875 465.945313 C 341.285156 465.601563 341.65625 465.429688 341.988281 465.429688 L 342.601563 465.53125 L 343.140625 465.632813 C 343.488281 465.632813 343.980469 465.492188 344.617188 465.214844 L 344.617188 465.09375 C 345.871094 464.550781 346.664063 463.5625 347 462.128906 C 347.253906 460.421875 347.511719 458.710938 347.765625 456.988281 C 348.101563 455.109375 349.851563 452.648438 353.027344 449.605469 C 353.539063 449.128906 353.949219 448.886719 354.253906 448.886719 C 354.460938 448.886719 354.5625 448.984375 354.5625 449.179688 C 354.5625 449.292969 354.523438 449.433594 354.445313 449.605469 C 353.164063 452.773438 352.398438 455.160156 352.144531 456.769531 C 351.683594 459.59375 350.632813 462.054688 348.996094 464.152344 M 252.214844 484.324219 C 251.699219 484.566406 251.304688 484.691406 251.023438 484.691406 C 250.742188 484.691406 250.601563 484.59375 250.601563 484.394531 C 250.601563 484.222656 250.691406 484.066406 250.867188 483.917969 C 256.984375 478.921875 262.167969 476.421875 266.414063 476.421875 C 267.464844 476.421875 268.4375 476.582031 269.332031 476.902344 L 269.332031 476.910156 C 270.804688 477.390625 272.277344 477.660156 273.75 477.707031 C 277.410156 475.152344 279.535156 472.960938 280.121094 471.132813 C 280.609375 468.050781 281.082031 464.96875 281.542969 461.886719 C 281.773438 460.746094 283.652344 457.976563 287.1875 453.582031 C 287.570313 453.105469 287.929688 452.863281 288.261719 452.863281 C 288.464844 452.863281 288.566406 453 288.566406 453.269531 C 288.566406 453.429688 288.53125 453.613281 288.453125 453.820313 C 287.402344 456.398438 286.789063 458.597656 286.609375 460.414063 C 286.457031 461.9375 285.96875 463.777344 285.152344 465.9375 C 284.253906 468.34375 283.347656 469.964844 282.425781 470.800781 C 282.222656 470.972656 282.117188 471.105469 282.117188 471.207031 L 282.273438 471.277344 C 282.449219 471.277344 282.734375 471.148438 283.117188 470.894531 C 286.726563 468.414063 290.371094 467.171875 294.058594 467.171875 C 295.515625 467.171875 296.742188 467.375 297.742188 467.78125 C 298.917969 468.246094 299.507813 468.929688 299.507813 469.824219 C 299.507813 470.402344 299.007813 471.316406 298.011719 472.566406 C 297.167969 473.648438 296.308594 474.546875 295.4375 475.257813 C 288.433594 481.105469 279.734375 484.035156 269.332031 484.042969 L 269.332031 484.046875 C 266.953125 484.046875 265.289063 483.730469 264.34375 483.097656 C 263.394531 482.464844 262.179688 482.148438 260.695313 482.148438 C 257.984375 482.148438 255.15625 482.875 252.214844 484.324219 M 247.609375 472.601563 C 247.609375 472.34375 248.535156 471.464844 250.390625 469.964844 C 252.246094 468.46875 253.367188 467.71875 253.75 467.71875 C 254.542969 467.71875 255.707031 467.996094 257.242188 468.546875 C 258.777344 469.101563 259.828125 469.609375 260.390625 470.078125 C 261.285156 469.414063 262.195313 468.757813 263.117188 468.105469 C 264.445313 467.160156 265.265625 466.6875 265.574219 466.6875 C 266.699219 466.6875 268.042969 467.027344 269.605469 467.703125 C 271.242188 468.425781 272.0625 469.101563 272.0625 469.726563 C 272.0625 470.453125 271.230469 471.335938 269.566406 472.378906 C 267.980469 473.375 266.816406 473.871094 266.074219 473.871094 C 265.558594 473.871094 264.765625 473.636719 263.691406 473.171875 C 262.183594 472.507813 260.914063 472.023438 259.890625 471.714844 C 257.410156 473.851563 255.476563 474.921875 254.097656 474.921875 C 253.710938 474.921875 253.175781 474.785156 252.484375 474.515625 C 251.894531 474.296875 251.304688 474.066406 250.71875 473.835938 C 248.644531 473.121094 247.609375 472.710938 247.609375 472.601563 M 320.914063 458.402344 C 322.769531 456.921875 323.890625 456.183594 324.273438 456.183594 C 325.066406 456.183594 326.203125 456.457031 327.691406 457.003906 C 329.175781 457.550781 330.199219 458.050781 330.761719 458.503906 C 331.65625 457.855469 332.550781 457.210938 333.449219 456.570313 C 334.753906 455.648438 335.558594 455.1875 335.867188 455.1875 C 336.941406 455.1875 338.246094 455.519531 339.78125 456.183594 C 341.394531 456.882813 342.199219 457.539063 342.199219 458.152344 C 342.199219 458.867188 341.382813 459.738281 339.742188 460.769531 C 338.207031 461.738281 337.070313 462.222656 336.328125 462.222656 C 335.816406 462.222656 335.035156 461.992188 333.984375 461.523438 C 332.527344 460.871094 331.285156 460.402344 330.261719 460.105469 C 327.855469 462.207031 325.976563 463.253906 324.617188 463.253906 C 324.3125 463.253906 323.152344 462.910156 321.144531 462.214844 C 319.136719 461.519531 318.132813 461.121094 318.132813 461.007813 C 318.132813 460.753906 319.058594 459.882813 320.914063 458.402344 M 326.421875 451.847656 C 327.957031 450.480469 328.929688 449.792969 329.339844 449.792969 C 330.414063 449.792969 331.644531 450.101563 333.027344 450.714844 C 334.484375 451.363281 335.214844 451.992188 335.214844 452.59375 C 335.214844 453.230469 334.546875 454.054688 333.21875 455.0625 C 331.9375 456.019531 331.003906 456.496094 330.414063 456.496094 C 330.058594 456.496094 329.597656 456.378906 329.035156 456.144531 C 328.367188 455.886719 327.714844 455.625 327.074219 455.355469 C 326.4375 455.160156 325.785156 454.960938 325.117188 454.757813 C 324.453125 454.554688 324.117188 454.367188 324.117188 454.195313 C 324.117188 454 324.886719 453.214844 326.421875 451.847656 M 396.328125 473.699219 C 393.878906 463.480469 396.820313 452.871094 401.828125 443.898438 C 377.039063 444.007813 352.25 443.648438 327.460938 443.871094 C 324.511719 443.800781 323.289063 447.800781 320.25 447.390625 C 316.371094 448.007813 313.078125 445.75 309.769531 444.171875 C 304.402344 442.640625 299.269531 445.398438 294.421875 447.359375 C 287.890625 449.648438 281.820313 453.089844 276.28125 457.230469 C 273.609375 454.949219 270.109375 454.941406 266.929688 453.980469 C 264.058594 451.550781 264.652344 447.300781 264.261719 443.929688 C 245.300781 443.910156 226.328125 443.710938 207.359375 443.871094 C 213.75 450.460938 218.789063 458.5 221.441406 467.3125 C 223.992188 478.609375 217.972656 489.230469 212.800781 498.8125 C 276.800781 498.890625 340.789063 498.910156 404.789063 498.800781 C 402.5625 490.238281 398.269531 482.347656 396.328125 473.699219 "/>
<path style=" stroke:none;fill-rule:nonzero;fill:rgb(75.389099%,57.617188%,0%);fill-opacity:1;" d="M 294.441406 472.585938 C 294.441406 472.429688 294.058594 472.199219 293.289063 471.90625 C 292.316406 471.535156 291.230469 471.355469 290.027344 471.355469 C 287.082031 471.355469 282.476563 473.472656 276.207031 477.707031 C 280.453125 477.707031 284.652344 477.042969 288.796875 475.71875 C 292.558594 474.503906 294.441406 473.460938 294.441406 472.585938 "/>
<path style=" stroke:none;fill-rule:nonzero;fill:rgb(75.389099%,57.617188%,0%);fill-opacity:1;" d="M 393.738281 93.671875 C 398.289063 91.871094 401.960938 96.859375 403.101563 100.851563 C 403.621094 104.839844 402.308594 108.910156 400.191406 112.28125 C 393.171875 122.171875 385.21875 131.351563 377.738281 140.890625 C 365.648438 155.121094 354.480469 170.160156 341.398438 183.53125 C 335.390625 189.890625 329.390625 196.339844 324.628906 203.71875 C 320.210938 210.199219 316.191406 217.398438 315.898438 225.429688 C 315.210938 233.539063 318.441406 241.179688 319.808594 249.039063 C 322.320313 258.308594 322.320313 267.96875 322.839844 277.488281 C 322.738281 286.28125 320.800781 295.449219 315.558594 302.679688 C 312.289063 307.261719 307.269531 310.359375 301.949219 311.96875 C 298.238281 312.421875 294.460938 312.390625 290.75 312.019531 C 282.929688 309.859375 276.199219 304.941406 270.261719 299.558594 C 263.550781 293.339844 259.839844 284.761719 256.300781 276.511719 C 253.089844 267.839844 250.628906 258.800781 250.21875 249.53125 C 249.96875 241.371094 249.96875 233.210938 249.570313 225.058594 C 249.738281 221.609375 246.230469 219.878906 244.410156 217.429688 C 232.710938 203.71875 220.621094 190.28125 210.429688 175.371094 C 205.269531 169.289063 202 161.960938 199.390625 154.488281 C 196.089844 145.320313 191.851563 135.859375 192.820313 125.898438 C 194.199219 123.398438 196.5 121.480469 198.820313 119.871094 C 202.300781 119.640625 204.269531 123.820313 205.230469 126.660156 C 208.199219 140.761719 209.730469 155.300781 215.039063 168.800781 C 217.730469 175.859375 223.550781 180.890625 228.300781 186.53125 C 236.601563 196.21875 244.988281 205.828125 253.429688 215.398438 C 255.328125 217.800781 257.640625 219.960938 259.011719 222.730469 C 259.828125 238.511719 257.578125 254.628906 261.621094 270.109375 C 264.070313 277.46875 265.960938 285.53125 271.589844 291.238281 C 275.660156 295.429688 281.011719 298.351563 286.609375 299.910156 C 291.089844 300.140625 295.609375 300.171875 300.089844 299.890625 C 305.589844 298.191406 310.660156 294.21875 312.570313 288.640625 C 315.738281 281.441406 315.25 273.398438 314.789063 265.738281 C 311.859375 251.109375 307.199219 236.519531 307.960938 221.429688 C 308.128906 217.320313 309.289063 213.160156 311.550781 209.710938 C 329.441406 186.679688 348.929688 164.941406 366.710938 141.820313 C 370.941406 136.210938 375.21875 130.5 377.988281 124 C 381.109375 116.921875 384.550781 109.988281 387.660156 102.921875 C 389.140625 99.519531 390.859375 96.101563 393.738281 93.671875 "/>
<path style=" stroke:none;fill-rule:nonzero;fill:rgb(75.389099%,57.617188%,0%);fill-opacity:1;" d="M 393.570313 126.699219 C 396.378906 123.128906 398.671875 119.160156 401.660156 115.71875 C 404.058594 119.320313 404.03125 124.199219 402.808594 128.25 C 401.75 132.511719 397.878906 135.121094 395.160156 138.300781 C 387.609375 146.671875 380.828125 156.101563 371.171875 162.210938 C 370.140625 160.449219 368.558594 158.710938 368.929688 156.519531 C 369.789063 154.398438 371.351563 152.660156 372.839844 150.960938 C 379.949219 143.050781 386.988281 135.070313 393.570313 126.699219 "/>
<path style=" stroke:none;fill-rule:nonzero;fill:rgb(75.389099%,57.617188%,0%);fill-opacity:1;" d="M 378.789063 160.929688 C 387.039063 152.761719 393.78125 143.140625 402.550781 135.511719 C 402.589844 138.601563 403.261719 141.960938 401.550781 144.75 C 397.859375 152.269531 391.191406 157.679688 385.578125 163.710938 C 381.121094 168.609375 376.640625 173.480469 372.101563 178.300781 C 370.800781 175.328125 369.628906 172.039063 370.21875 168.761719 C 372.75 165.800781 376.050781 163.660156 378.789063 160.929688 "/>
<path style=" stroke:none;fill-rule:nonzero;fill:rgb(75.389099%,57.617188%,0%);fill-opacity:1;" d="M 186.46875 156.488281 C 184.660156 151.25 186.128906 145.269531 189.5 140.980469 C 192.738281 146 193.648438 152.050781 196.679688 157.160156 C 198.179688 159.921875 199.980469 162.511719 201.660156 165.160156 C 204.371094 169.570313 205.328125 174.761719 206.089844 179.800781 C 201.339844 177.839844 197.910156 173.910156 195.089844 169.761719 C 192.230469 165.320313 187.988281 161.691406 186.46875 156.488281 "/>
<path style=" stroke:none;fill-rule:nonzero;fill:rgb(75.389099%,57.617188%,0%);fill-opacity:1;" d="M 397.878906 156.019531 C 398.871094 154.941406 400.359375 154.75 401.691406 154.339844 C 401.980469 156.46875 402.46875 158.75 401.609375 160.828125 C 399.75 164.761719 397.851563 168.769531 394.820313 171.949219 C 388.03125 178.988281 381.019531 185.808594 373.578125 192.160156 C 373.910156 188.019531 372.109375 182.898438 375.5625 179.671875 C 379.441406 175.238281 383.910156 171.351563 387.640625 166.78125 C 390.738281 162.910156 394.25 159.390625 397.878906 156.019531 "/>
<path style=" stroke:none;fill-rule:nonzero;fill:rgb(75.389099%,57.617188%,0%);fill-opacity:1;" d="M 349.550781 179.660156 C 355.691406 173 359.660156 164.46875 367.101563 159.011719 C 367.152344 162.339844 367.839844 166.039063 365.949219 169.019531 C 363.152344 173.449219 359.730469 177.449219 356.050781 181.171875 C 351.921875 185.308594 348.152344 189.820313 343.660156 193.578125 C 343.46875 191.308594 343.128906 189.019531 343.460938 186.75 C 345.300781 184.230469 347.570313 182.058594 349.550781 179.660156 "/>
<path style=" stroke:none;fill-rule:nonzero;fill:rgb(75.389099%,57.617188%,0%);fill-opacity:1;" d="M 184.238281 164.679688 C 188.808594 168.019531 192.300781 172.609375 196.910156 175.941406 C 200.371094 178.671875 204.730469 181.210938 205.78125 185.851563 C 206.519531 189.730469 206 193.730469 205.78125 197.648438 C 201.5 195.238281 197.839844 191.789063 195.101563 187.730469 C 191.460938 182.609375 186.441406 178.371094 184.089844 172.429688 C 183.660156 169.859375 184.011719 167.238281 184.238281 164.679688 "/>
<path style=" stroke:none;fill-rule:nonzero;fill:rgb(75.389099%,57.617188%,0%);fill-opacity:1;" d="M 355.691406 185.820313 C 360.191406 181.570313 364.078125 176.699219 368.8125 172.691406 C 368.988281 176.839844 367.988281 181.070313 364.960938 184.070313 C 358.289063 191.359375 350.960938 198.058594 343.429688 204.460938 C 343.570313 202.019531 342.859375 199.328125 343.921875 197.058594 C 347.300781 192.78125 351.921875 189.71875 355.691406 185.820313 "/>
<path style=" stroke:none;fill-rule:nonzero;fill:rgb(75.389099%,57.617188%,0%);fill-opacity:1;" d="M 379.921875 190.070313 C 386.671875 184.941406 392.199219 178.421875 398.898438 173.230469 C 399.28125 176.53125 399.328125 180 398.011719 183.109375 C 395.910156 187.449219 392.148438 190.601563 388.878906 194.011719 C 383.238281 199.808594 377.339844 205.371094 371.078125 210.5 C 371.03125 206.28125 370.140625 201.851563 371.289063 197.738281 C 373.710938 194.71875 376.949219 192.511719 379.921875 190.070313 "/>
<path style=" stroke:none;fill-rule:nonzero;fill:rgb(75.389099%,57.617188%,0%);fill-opacity:1;" d="M 210.96875 179.75 C 218.101563 189.710938 226.039063 199.070313 233.179688 209.011719 C 224.460938 208.628906 218.699219 201.320313 214.160156 194.738281 C 211.609375 190.261719 207.480469 184.910156 210.96875 179.75 "/>
<path style=" stroke:none;fill-rule:nonzero;fill:rgb(75.389099%,57.617188%,0%);fill-opacity:1;" d="M 183.191406 182.5 C 188.539063 187.179688 193.179688 192.609375 198.121094 197.699219 C 200.371094 200.078125 203.269531 201.960938 204.890625 204.871094 C 205.070313 208.941406 206 212.96875 205.890625 217.050781 C 205.3125 217.078125 204.148438 217.160156 203.570313 217.191406 C 197.460938 212.761719 191.46875 207.96875 186.871094 201.921875 C 182.300781 196.601563 182.988281 189.019531 183.191406 182.5 "/>
<path style=" stroke:none;fill-rule:nonzero;fill:rgb(75.389099%,57.617188%,0%);fill-opacity:1;" d="M 352.699219 200.828125 C 358.46875 195.46875 363.859375 189.699219 369.800781 184.519531 C 369.800781 187.808594 370.789063 191.699219 368.230469 194.351563 C 360.710938 202.648438 353.421875 211.421875 344.230469 217.949219 C 343.789063 215.589844 343.199219 213.199219 343.441406 210.789063 C 346.140625 207.148438 349.550781 204.078125 352.699219 200.828125 "/>
<path style=" stroke:none;fill-rule:nonzero;fill:rgb(75.389099%,57.617188%,0%);fill-opacity:1;" d="M 322.628906 216.121094 C 324.570313 206.25 332.601563 199.339844 338.859375 192.039063 C 339.261719 196.210938 338.578125 200.648438 335.839844 203.96875 C 332.0625 208.628906 327.5 212.640625 322.628906 216.121094 "/>
<path style=" stroke:none;fill-rule:nonzero;fill:rgb(75.389099%,57.617188%,0%);fill-opacity:1;" d="M 382.621094 204.75 C 387.570313 200.730469 391.460938 195.550781 396.628906 191.820313 C 397.101563 200.171875 390.519531 205.960938 385.871094 212 C 380.550781 217.28125 375.121094 222.53125 369.191406 227.109375 C 369.179688 222.898438 367.890625 217.761719 371.378906 214.5 C 375.019531 211.128906 379.019531 208.160156 382.621094 204.75 "/>
<path style=" stroke:none;fill-rule:nonzero;fill:rgb(75.389099%,57.617188%,0%);fill-opacity:1;" d="M 209.789063 192.929688 C 213.621094 197.160156 216.949219 201.828125 220.941406 205.910156 C 224.539063 209.738281 230.441406 211.03125 232.890625 216 C 234.320313 218.050781 233.269531 222.480469 230.261719 221.910156 C 225.398438 221.261719 221.921875 217.449219 218.96875 213.859375 C 216.148438 210.351563 212.628906 207.308594 210.621094 203.21875 C 208.960938 200.039063 209.628906 196.351563 209.789063 192.929688 "/>
<path style=" stroke:none;fill-rule:nonzero;fill:rgb(75.389099%,57.617188%,0%);fill-opacity:1;" d="M 350.46875 216.601563 C 356.328125 211.03125 361.390625 204.558594 367.96875 199.789063 C 368.242188 209.71875 359.652344 216.109375 353.3125 222.429688 C 349.820313 225.171875 346.679688 229.441406 341.78125 229.160156 C 341.910156 223.480469 346.960938 220.308594 350.46875 216.601563 "/>
<path style=" stroke:none;fill-rule:nonzero;fill:rgb(75.389099%,57.617188%,0%);fill-opacity:1;" d="M 325.160156 218.289063 C 329.058594 213.78125 332.71875 208.890625 337.609375 205.398438 C 338.441406 205.28125 340.101563 205.019531 340.929688 204.890625 C 339.820313 207.910156 338.410156 210.890625 335.980469 213.070313 C 330.871094 217.859375 326.691406 223.648438 320.851563 227.601563 C 320 223.75 322.988281 220.988281 325.160156 218.289063 "/>
<path style=" stroke:none;fill-rule:nonzero;fill:rgb(75.389099%,57.617188%,0%);fill-opacity:1;" d="M 379.800781 222.941406 C 385.628906 217.238281 390.351563 210.460938 396.730469 205.308594 C 396.589844 214.339844 390.839844 221.839844 385.402344 228.53125 C 381.570313 233.019531 377.851563 237.75 373.039063 241.230469 C 370.441406 242.070313 368.789063 239.511719 367.921875 237.480469 C 370.5 231.648438 375.402344 227.371094 379.800781 222.941406 "/>
<path style=" stroke:none;fill-rule:nonzero;fill:rgb(75.389099%,57.617188%,0%);fill-opacity:1;" d="M 185.511719 208.109375 C 189.238281 209.488281 192.53125 211.800781 195.730469 214.128906 C 199.488281 216.941406 203.378906 219.71875 206.289063 223.460938 C 208.910156 227.238281 209.039063 232.039063 209.71875 236.429688 C 204.179688 234.800781 199.921875 230.839844 195.539063 227.308594 C 189.929688 222.511719 186.511719 215.339844 185.511719 208.109375 "/>
<path style=" stroke:none;fill-rule:nonzero;fill:rgb(75.389099%,57.617188%,0%);fill-opacity:1;" d="M 208.808594 209.820313 C 213.199219 212.359375 215.890625 216.941406 220.230469 219.558594 C 224.101563 221.941406 228.210938 224.160156 231.101563 227.761719 C 233.039063 229.71875 232.890625 232.628906 233.308594 235.148438 C 230.609375 235.089844 227.699219 235.128906 225.449219 233.390625 C 222.160156 231.011719 218.898438 228.578125 215.570313 226.261719 C 210.359375 222.691406 207.738281 216.011719 208.808594 209.820313 "/>
<path style=" stroke:none;fill-rule:nonzero;fill:rgb(75.389099%,57.617188%,0%);fill-opacity:1;" d="M 344.078125 233.429688 C 352.222656 226.921875 360.101563 220.121094 367.910156 213.21875 C 369.351563 219.761719 364.160156 224.890625 359.949219 229.078125 C 355.5 233.238281 350.679688 238.558594 344.011719 238.070313 C 344.019531 236.519531 344.050781 234.96875 344.078125 233.429688 "/>
<path style=" stroke:none;fill-rule:nonzero;fill:rgb(75.389099%,57.617188%,0%);fill-opacity:1;" d="M 238.019531 214.871094 C 244.089844 218.449219 247.480469 225.230469 247.78125 232.148438 C 242.890625 227.671875 236.730469 222.28125 238.019531 214.871094 "/>
<path style=" stroke:none;fill-rule:nonzero;fill:rgb(75.389099%,57.617188%,0%);fill-opacity:1;" d="M 237.070313 224.070313 C 242.371094 229.199219 247.519531 235.320313 248.769531 242.820313 C 243.820313 241.058594 239.421875 237.261719 237.710938 232.191406 C 236.691406 229.609375 237.128906 226.769531 237.070313 224.070313 "/>
<path style=" stroke:none;fill-rule:nonzero;fill:rgb(75.389099%,57.617188%,0%);fill-opacity:1;" d="M 334.96875 227.109375 C 336.640625 225.871094 338.730469 225.570313 340.71875 225.148438 C 339.960938 228.238281 338.78125 231.320313 336.339844 233.480469 C 332.03125 237.660156 327.679688 242.640625 321.5625 243.988281 C 321.242188 243.339844 320.578125 242.039063 320.25 241.390625 C 324.269531 235.878906 329.191406 230.808594 334.96875 227.109375 "/>
<path style=" stroke:none;fill-rule:nonzero;fill:rgb(75.389099%,57.617188%,0%);fill-opacity:1;" d="M 344.878906 244.421875 C 352.390625 239.78125 358.761719 233.621094 365.660156 228.191406 C 367.0625 232.800781 365.101563 237.671875 361.910156 241.03125 C 357.640625 245.710938 352.53125 250.160156 346.261719 251.761719 C 345.75 249.320313 345.261719 246.878906 344.878906 244.421875 "/>
<path style=" stroke:none;fill-rule:nonzero;fill:rgb(75.389099%,57.617188%,0%);fill-opacity:1;" d="M 193.148438 230.53125 C 199.46875 233.648438 204.898438 238.308594 210.289063 242.769531 C 211.589844 246.75 211.359375 251 211.199219 255.121094 C 207.890625 253.449219 204.800781 251.269531 202.578125 248.25 C 198.601563 242.859375 194.941406 237.03125 193.148438 230.53125 "/>
<path style=" stroke:none;fill-rule:nonzero;fill:rgb(75.389099%,57.617188%,0%);fill-opacity:1;" d="M 212.109375 229.558594 C 216.398438 231.011719 220.238281 233.460938 224.210938 235.578125 C 226.800781 237.160156 229.660156 238.691406 231.320313 241.328125 C 232.148438 244.289063 232.179688 247.421875 232.660156 250.449219 C 226.0625 250.980469 221.660156 245.539063 217.070313 241.75 C 213.488281 238.789063 212.371094 233.988281 212.109375 229.558594 "/>
<path style=" stroke:none;fill-rule:nonzero;fill:rgb(75.389099%,57.617188%,0%);fill-opacity:1;" d="M 327.960938 244.109375 C 332.3125 240.808594 335.789063 236.429688 340.589844 233.699219 C 341.148438 237.109375 340.570313 240.679688 337.988281 243.160156 C 334.429688 247.179688 329.871094 250.179688 325.25 252.851563 C 324.011719 252.578125 322.78125 252.238281 321.570313 251.851563 C 323.101563 248.820313 325.28125 246.191406 327.960938 244.109375 "/>
<path style=" stroke:none;fill-rule:nonzero;fill:rgb(75.389099%,57.617188%,0%);fill-opacity:1;" d="M 234.558594 235.261719 C 237.699219 236.609375 240.050781 239.101563 242.011719 241.828125 C 244.539063 245.339844 248.550781 248.628906 247.679688 253.449219 C 243.371094 252.160156 240.28125 248.609375 237.589844 245.199219 C 235.511719 242.320313 233.898438 238.898438 234.558594 235.261719 "/>
<path style=" stroke:none;fill-rule:nonzero;fill:rgb(75.389099%,57.617188%,0%);fill-opacity:1;" d="M 349.351563 255.488281 C 355.5625 251 361.351563 245.96875 367.328125 241.179688 C 367.109375 245.78125 366.722656 250.929688 363.28125 254.390625 C 358.742188 259.328125 353.019531 263.980469 346.140625 264.789063 C 345.8125 261.398438 346.152344 257.449219 349.351563 255.488281 "/>
<path style=" stroke:none;fill-rule:nonzero;fill:rgb(75.389099%,57.617188%,0%);fill-opacity:1;" d="M 327.050781 255.261719 C 331.511719 250.988281 335.878906 246.421875 341.519531 243.691406 C 342.3125 246.371094 343.359375 249.820313 340.800781 251.941406 C 336.011719 256.359375 330.660156 260.308594 324.730469 263.058594 C 324.488281 260.238281 324.980469 257.328125 327.050781 255.261719 "/>
<path style=" stroke:none;fill-rule:nonzero;fill:rgb(75.389099%,57.617188%,0%);fill-opacity:1;" d="M 213.980469 244.761719 C 218.441406 246.261719 222.050781 249.28125 225.800781 252.011719 C 229.789063 254.820313 233.109375 258.828125 233.898438 263.789063 C 225.589844 262.230469 217.660156 257.28125 214.109375 249.390625 C 213.96875 247.851563 213.929688 246.308594 213.980469 244.761719 "/>
<path style=" stroke:none;fill-rule:nonzero;fill:rgb(75.389099%,57.617188%,0%);fill-opacity:1;" d="M 324.851563 270.878906 C 328.699219 263.609375 335.589844 258.460938 342.570313 254.421875 C 342.050781 257.089844 342.25 260.230469 340.191406 262.308594 C 337.171875 265.71875 333.421875 268.441406 329.371094 270.480469 C 327.992188 271.289063 326.351563 270.890625 324.851563 270.878906 "/>
<path style=" stroke:none;fill-rule:nonzero;fill:rgb(75.389099%,57.617188%,0%);fill-opacity:1;" d="M 365.25 256.410156 C 366.390625 255.578125 367.621094 254.890625 368.839844 254.179688 C 368.941406 256.140625 369.160156 258.121094 368.929688 260.078125 C 364.71875 268.101563 356.730469 273.148438 348.371094 276.019531 C 347.789063 275.609375 346.621094 274.800781 346.039063 274.390625 C 346.019531 272.679688 346.011719 270.96875 346 269.261719 C 352.21875 264.671875 359.140625 261.140625 365.25 256.410156 "/>
<path style=" stroke:none;fill-rule:nonzero;fill:rgb(75.389099%,57.617188%,0%);fill-opacity:1;" d="M 215.710938 258.878906 C 222.289063 260.46875 227.75 264.800781 232.929688 268.941406 C 235.558594 270.839844 235.441406 274.351563 236.199219 277.179688 C 229.050781 275.730469 221.421875 273 217.011719 266.839844 C 215.089844 264.640625 215.859375 261.53125 215.710938 258.878906 "/>
<path style=" stroke:none;fill-rule:nonzero;fill:rgb(75.389099%,57.617188%,0%);fill-opacity:1;" d="M 326.820313 278.320313 C 329.621094 271.511719 336.828125 268.351563 342.109375 263.769531 C 344.25 267.28125 341.558594 270.769531 339.128906 273.269531 C 335.859375 276.449219 331.328125 278.101563 326.820313 278.320313 "/>
<path style=" stroke:none;fill-rule:nonzero;fill:rgb(75.389099%,57.617188%,0%);fill-opacity:1;" d="M 355.710938 274.808594 C 360.640625 272.488281 364.660156 268.53125 369.898438 266.800781 C 369.71875 268.960938 370.671875 271.53125 369.179688 273.378906 C 363.910156 281.171875 354.441406 284.460938 345.730469 286.710938 C 345.421875 284.628906 345.171875 282.550781 345 280.460938 C 348.429688 278.328125 352.078125 276.578125 355.710938 274.808594 "/>
<path style=" stroke:none;fill-rule:nonzero;fill:rgb(75.389099%,57.617188%,0%);fill-opacity:1;" d="M 358.949219 283.988281 C 363.320313 282.019531 367.058594 278.871094 371.609375 277.300781 C 371.71875 280.179688 371.929688 283.550781 369.398438 285.550781 C 362.621094 291.921875 353.601563 296.75 344.078125 296.359375 C 344.238281 294.550781 344.238281 292.699219 344.769531 290.960938 C 349.058594 287.839844 354.28125 286.410156 358.949219 283.988281 "/>
<path style=" stroke:none;fill-rule:nonzero;fill:rgb(75.389099%,57.617188%,0%);fill-opacity:1;" d="M 220.570313 284.871094 C 226.238281 284.761719 231.46875 287.261719 236.738281 289 C 240.960938 290.308594 244.019531 293.621094 246.679688 296.988281 C 240.730469 297.410156 234.390625 297.730469 228.921875 294.941406 C 224.75 293.03125 222.679688 288.660156 220.570313 284.871094 "/>
<path style=" stroke:none;fill-rule:nonzero;fill:rgb(75.389099%,57.617188%,0%);fill-opacity:1;" d="M 323.859375 297.359375 C 328.980469 295.160156 334.601563 295.75 340.019531 295.851563 C 340.039063 296.878906 340.050781 297.910156 340.078125 298.949219 C 334.769531 300.351563 329.3125 301.121094 323.828125 301.070313 C 323.828125 300.140625 323.851563 298.289063 323.859375 297.359375 "/>
<path style=" stroke:none;fill-rule:nonzero;fill:rgb(75.389099%,57.617188%,0%);fill-opacity:1;" d="M 229.730469 300.011719 C 235.519531 299.621094 241.25 301.230469 246.421875 303.738281 C 241.808594 304.730469 237.078125 305.800781 233.480469 309.070313 C 231.351563 306.441406 229.359375 303.578125 229.730469 300.011719 "/>
<path style=" stroke:none;fill-rule:nonzero;fill:rgb(75.389099%,57.617188%,0%);fill-opacity:1;" d="M 343.5 307.050781 C 351.929688 306.679688 358.828125 300.230469 367.25 300.210938 C 367.71875 304.691406 363.660156 307.640625 359.828125 308.738281 C 352.949219 310.949219 345.699219 312.589844 338.441406 312.210938 C 339.121094 309.730469 340.390625 306.730469 343.5 307.050781 "/>
<path style=" stroke:none;fill-rule:nonzero;fill:rgb(75.389099%,57.617188%,0%);fill-opacity:1;" d="M 321.238281 305.421875 C 324.300781 301.980469 329.171875 302.859375 333.261719 302.921875 C 335.519531 302.789063 337.171875 304.679688 338.101563 306.539063 C 332.890625 309.71875 325.898438 309.539063 321.238281 305.421875 "/>
<path style=" stroke:none;fill-rule:nonzero;fill:rgb(75.389099%,57.617188%,0%);fill-opacity:1;" d="M 300.53125 343.011719 C 306.421875 346.871094 312.921875 351.050781 315.421875 358.011719 C 309.480469 354.308594 302.75 350.050781 300.53125 343.011719 M 299.378906 353.921875 C 302.421875 355.878906 305.078125 358.558594 306.320313 362.03125 C 303.359375 359.988281 300.421875 357.5 299.378906 353.921875 M 291.539063 363.28125 C 285.601563 359.011719 279.050781 353.980469 277.671875 346.3125 L 277.671875 346.308594 L 277.671875 346.3125 C 283.121094 349.769531 285.859375 356.039063 291.121094 359.730469 C 295.851563 363.589844 301.980469 366.699219 303.820313 373 C 299.488281 370.058594 295.921875 366.160156 291.539063 363.28125 M 274.808594 357.03125 C 279.078125 360.03125 282.820313 363.921875 285.121094 368.640625 C 280.441406 366.261719 275.710938 362.53125 274.808594 357.03125 M 278.21875 370.609375 C 274.191406 366.960938 271.089844 362.402344 269.039063 357.378906 C 269.03125 356.550781 269.03125 354.890625 269.019531 354.0625 L 269.019531 354.058594 L 269.019531 354.0625 C 273 357.339844 273.621094 362.96875 277.519531 366.300781 C 280.910156 369.710938 285.679688 371.328125 289.03125 374.789063 C 289.429688 376.640625 289.328125 378.550781 289.421875 380.441406 C 284.660156 378.53125 281.910156 373.921875 278.21875 370.609375 M 262.699219 325.289063 C 257.429688 324.359375 252.148438 321.160156 246.710938 322.609375 C 243.398438 326.910156 241.488281 332.109375 238.46875 336.609375 C 235.820313 340.109375 237.476563 338.761719 234.066406 341.503906 C 233.996094 339.722656 229.011719 341.582031 228.988281 339.8125 C 232.871094 337.460938 237.730469 336.058594 238.96875 331.210938 C 240.628906 325.730469 243.839844 320.289063 249.300781 317.921875 C 254.03125 317.730469 258.570313 319.289063 262.710938 321.46875 C 262.699219 322.429688 262.699219 324.339844 262.699219 325.289063 M 218.011719 338.21875 C 221.640625 333.800781 224.480469 328.851563 227.789063 324.210938 C 227.769531 326.460938 227.628906 328.710938 227.570313 330.960938 C 231.199219 328.589844 234.53125 325.761719 238.449219 323.839844 C 235.929688 332.671875 227.089844 338.660156 218.011719 338.21875 M 344.699219 375.140625 C 339.21875 369.800781 331.800781 367.269531 325.078125 363.910156 C 323.25 363.410156 323.171875 361.410156 322.691406 359.921875 C 329.269531 361.460938 333.828125 368.46875 341.140625 367.300781 C 337.851563 361.210938 329.320313 361.5625 325.800781 355.589844 C 330.890625 355.691406 335 359.070313 339.738281 360.46875 C 337.96875 356.578125 334.199219 354.5 330.570313 352.671875 C 331.71875 351.640625 332.871094 350.621094 334.007813 349.578125 C 332.589844 345.988281 331.050781 341.839844 327.351563 340.03125 C 322.851563 339.578125 318.300781 340.460938 313.808594 339.878906 C 308.800781 338.050781 306.289063 332.679688 301.609375 330.3125 C 299.300781 329.160156 296.820313 328.441406 294.46875 327.402344 C 288.761719 325.070313 284.109375 320.839844 278.53125 318.289063 C 268.769531 313.011719 257.050781 312.089844 246.320313 314.429688 C 242.839844 315.71875 239.71875 318.140625 235.828125 318.121094 C 237.339844 315.160156 239.269531 312.441406 240.679688 309.421875 C 234.308594 311.238281 230.421875 316.871094 226.988281 322.121094 C 224.261719 326.371094 219.480469 328.738281 214.601563 329.539063 C 218.351563 324.628906 224.230469 321.46875 226.921875 315.78125 C 223.128906 316.421875 220 318.820313 217.378906 321.5 C 214.589844 324.308594 211.738281 327.46875 210.71875 331.378906 C 212.746094 335.949219 216.878906 338.941406 220.167969 342.535156 L 220.175781 342.535156 L 220.183594 342.554688 C 220.203125 342.574219 220.222656 342.589844 220.238281 342.609375 C 220.234375 342.613281 220.230469 342.613281 220.226563 342.617188 L 224.949219 350.132813 C 225.066406 350.253906 225.167969 350.390625 225.289063 350.511719 C 227.320313 352.988281 231.03125 352.449219 233.789063 351.871094 C 239.089844 348.269531 245.640625 344.570313 246.570313 337.558594 C 249.859375 343.570313 254.058594 349.550781 260.78125 351.96875 C 261.511719 349.171875 262.121094 346.328125 263.289063 343.671875 C 264.011719 345.269531 264.859375 346.851563 265.140625 348.609375 C 265.691406 355.339844 267.480469 362.089844 270.691406 368.050781 C 274.46875 373.589844 279.019531 378.980469 285.421875 381.53125 C 290.179688 383.410156 287.609375 389.28125 288.738281 393.070313 C 290.53125 396.769531 293.289063 399.851563 295.621094 403.199219 C 299.429688 408.589844 299.570313 415.660156 298.769531 421.949219 C 296.160156 425.339844 292.628906 427.871094 289.121094 430.25 C 285.578125 432.691406 283.019531 436.191406 280.128906 439.300781 C 277.441406 442.3125 273.371094 443.378906 270.140625 445.652344 C 272.648438 445.738281 275.148438 445.429688 277.578125 444.8125 C 278.46875 445.769531 279.351563 446.738281 280.328125 447.628906 C 283.769531 443.660156 285.769531 438.390625 290.238281 435.359375 C 294.179688 432.410156 298.929688 430.78125 302.839844 427.8125 C 305.351563 421.839844 303.949219 415.140625 303.601563 408.902344 C 302.589844 399.609375 292.78125 394.980469 290.539063 386.25 C 290.160156 382.03125 293.441406 378.601563 293.898438 374.5 C 293.328125 372.179688 291.140625 370.289063 291.640625 367.769531 C 293.03125 367.691406 295.328125 367.160156 295.929688 368.890625 C 298.859375 376.800781 298.039063 385.519531 300.488281 393.570313 C 301.371094 396.339844 302.96875 398.902344 305.101563 400.878906 C 308 401.960938 311.941406 400.769531 312.289063 397.351563 C 313.429688 390.300781 307.257813 385.410156 304.988281 379.320313 C 309.75 380.179688 311.398438 385.28125 315.398438 387.371094 C 319.101563 384.859375 320.078125 380.019531 323.589844 377.351563 C 328.148438 375.921875 331.398438 379.699219 334.75 382.03125 C 338.890625 384.160156 343.75 384.238281 348.320313 384.351563 C 347.53125 381.160156 347.257813 377.488281 344.699219 375.140625 "/>
<path style=" stroke:none;fill-rule:nonzero;fill:rgb(75.389099%,57.617188%,0%);fill-opacity:1;" d="M 357.101563 312.371094 C 360.011719 311.640625 363.03125 311.640625 366.011719 311.738281 C 364.03125 316.238281 359.339844 319.089844 354.429688 318.75 C 348.671875 318.5 342.78125 319.378906 337.121094 318 C 335.460938 317.859375 334.539063 316.410156 333.472656 315.351563 C 341.449219 315.441406 349.351563 314.160156 357.101563 312.371094 "/>
<path style=" stroke:none;fill-rule:nonzero;fill:rgb(75.389099%,57.617188%,0%);fill-opacity:1;" d="M 319.671875 323.03125 C 324.859375 322.488281 329.480469 325.328125 334.449219 326.308594 C 336.988281 327.289063 340.839844 327.257813 341.800781 330.339844 C 337.222656 332.28125 331.171875 333.171875 327.078125 329.71875 C 324.28125 327.890625 321.878906 325.53125 319.671875 323.03125 "/>
<path style=" stroke:none;fill-rule:nonzero;fill:rgb(75.389099%,57.617188%,0%);fill-opacity:1;" d="M 222 335.210938 C 223.148438 333.910156 223.921875 331.949219 225.769531 331.53125 C 226.429688 332.601563 227.070313 333.679688 227.679688 334.789063 C 225.789063 335 223.890625 335.128906 222 335.210938 "/>
<path style=" stroke:none;fill-rule:nonzero;fill:rgb(75.389099%,57.617188%,0%);fill-opacity:1;" d="M 324.019531 390.140625 C 325.210938 388.730469 327.191406 389.011719 328.828125 388.699219 C 339.519531 399.769531 350.050781 411.089844 362.0625 420.761719 C 368.0625 425.851563 374.03125 431.078125 380.929688 434.941406 C 383.601563 436.351563 385.699219 438.539063 387.539063 440.902344 C 383.371094 441.320313 379.191406 441.152344 375.007813 441.191406 C 371.660156 436.210938 368.492188 430.902344 363.699219 427.152344 C 358.320313 422.890625 354.039063 417.429688 348.671875 413.171875 C 343.519531 409.03125 339.589844 403.570313 334.257813 399.640625 C 334.378906 403.578125 336.570313 406.949219 338.78125 410.0625 C 347.171875 420.96875 360.519531 427.992188 366 441.078125 C 363.8125 441.140625 361.628906 441.179688 359.449219 441.199219 C 354.5625 435.070313 350.609375 428.25 345.640625 422.179688 C 343.410156 419.710938 340.960938 417.289063 337.898438 415.890625 C 338.730469 420.609375 341.910156 424.371094 344.628906 428.160156 C 347.960938 432.210938 350.8125 436.640625 353.601563 441.078125 C 351.257813 441.152344 348.921875 441.300781 346.589844 441.128906 C 344.390625 438.46875 343.390625 435.070313 341.742188 432.089844 C 337.191406 423.789063 332.980469 415.242188 327.160156 407.71875 C 326.441406 407.730469 324.980469 407.75 324.25 407.761719 C 326.800781 414.570313 329.539063 421.359375 333.257813 427.628906 C 336.101563 432.152344 339.222656 436.570313 341.050781 441.628906 C 339.851563 441.910156 338.640625 442.152344 337.429688 442.359375 C 334.007813 436.359375 333.550781 427.929688 326.679688 424.5625 C 327.460938 430.621094 330.910156 436.050781 331.089844 442.21875 C 326.859375 443.109375 325.492188 438.859375 323.910156 435.890625 C 320.820313 429.621094 318.210938 423.089844 314.480469 417.171875 C 314.339844 425.390625 316.691406 433.300781 319.5 440.921875 C 315.648438 438.800781 312.699219 435.101563 308.328125 433.992188 C 300.339844 436.710938 293.449219 441.871094 286.039063 445.828125 C 287.75 443.078125 289.789063 440.492188 292.351563 438.480469 C 297.078125 435.199219 302.871094 433.371094 306.941406 429.179688 C 307.269531 422.671875 306.398438 416.0625 307.949219 409.652344 C 310.0625 411.960938 311.949219 414.460938 313.992188 416.839844 C 314.449219 410.628906 313.429688 404.289063 315.128906 398.210938 C 316.199219 399.328125 317.269531 400.46875 318.339844 401.609375 C 319.628906 397.539063 320.78125 393.152344 324.019531 390.140625 "/>
<path style=" stroke:none;fill-rule:nonzero;fill:rgb(75.389099%,57.617188%,0%);fill-opacity:1;" d="M 335.148438 387.910156 C 341.519531 388.480469 347.800781 389.839844 354.128906 390.730469 C 364.5 393.289063 371.53125 401.941406 379.800781 408.039063 C 387.398438 415.230469 394.789063 422.691406 401.441406 430.789063 C 392.96875 428.210938 385.238281 423.878906 378.03125 418.820313 C 367.980469 413.539063 360.621094 404.648438 351.378906 398.269531 C 351.800781 400.820313 352.730469 403.320313 354.609375 405.171875 C 364.25 415.601563 376.539063 423.011719 388.660156 430.179688 C 394.441406 433.601563 401.328125 436.179688 405.0625 442.101563 C 399.421875 441.75 394.589844 438.550781 389.640625 436.171875 C 377.980469 429.578125 367.300781 421.398438 357.179688 412.660156 C 349.449219 404.769531 342.328125 396.300781 335.148438 387.910156 "/>
<path style=" stroke:none;fill-rule:nonzero;fill:rgb(74.804688%,57.617188%,0%);fill-opacity:1;" d="M 234.949219 249.078125 C 237.140625 249.988281 239.828125 250.378906 241.328125 252.410156 C 244.140625 255.890625 246.761719 259.640625 248.078125 263.96875 C 241.078125 262.398438 236.5 255.730469 234.949219 249.078125 "/>
<path style=" stroke:none;fill-rule:nonzero;fill:rgb(74.804688%,57.617188%,0%);fill-opacity:1;" d="M 237.46875 270.640625 C 244.328125 270.761719 250.671875 275.300781 253.851563 281.25 C 246.851563 281.53125 239.21875 277.929688 237.46875 270.640625 "/>
<path style=" stroke:none;fill-rule:nonzero;fill:rgb(74.804688%,57.226563%,0%);fill-opacity:1;" d="M 326.269531 226.410156 C 330.410156 221.921875 334.589844 217.328125 340.007813 214.339844 C 339.300781 219.828125 335.371094 224.089844 331.121094 227.269531 C 327.507813 229.871094 324.492188 233.648438 319.941406 234.628906 C 320.539063 230.929688 324.007813 229.03125 326.269531 226.410156 "/>
<path style=" stroke:none;fill-rule:nonzero;fill:rgb(74.804688%,57.226563%,0%);fill-opacity:1;" d="M 237.808594 260.628906 C 242.640625 263.261719 247.589844 266.480469 250 271.628906 C 245.429688 271.089844 241.011719 268.96875 238.140625 265.300781 C 237.898438 263.75 237.800781 262.199219 237.808594 260.628906 "/>
<path style=" stroke:none;fill-rule:nonzero;fill:rgb(74.804688%,57.226563%,0%);fill-opacity:1;" d="M 330.398438 281.578125 C 334.199219 279.441406 337.671875 276.761719 341.570313 274.789063 C 341.339844 276.761719 342.25 279.238281 340.519531 280.738281 C 336.570313 285.03125 330.3125 285.839844 324.8125 286.339844 C 326.378906 284.441406 328.230469 282.761719 330.398438 281.578125 "/>
<path style=" stroke:none;fill-rule:nonzero;fill:rgb(74.804688%,57.226563%,0%);fill-opacity:1;" d="M 323.929688 293.691406 C 328.089844 289.949219 333.578125 288.300781 338.539063 285.910156 C 341.019531 284.890625 341.429688 287.78125 341.789063 289.539063 C 336.652344 293.109375 330.070313 294.21875 323.929688 293.691406 "/>
<path style=" stroke:none;fill-rule:nonzero;fill:rgb(74.804688%,57.226563%,0%);fill-opacity:1;" d="M 346.648438 299.011719 C 355.03125 297.339844 362.578125 293.300781 369.800781 288.890625 C 369.539063 290.921875 369.21875 292.941406 368.898438 294.960938 C 360.539063 298.578125 352.320313 303.320313 343.121094 304.308594 C 343.78125 302.269531 343.839844 299.121094 346.648438 299.011719 "/>
<path style=" stroke:none;fill-rule:nonzero;fill:rgb(74.804688%,57.226563%,0%);fill-opacity:1;" d="M 246.171875 291.148438 C 251.859375 290.660156 258.191406 292.230469 261.769531 296.988281 C 258.5 297.230469 254.941406 297.601563 252 295.820313 C 249.890625 294.488281 248 292.828125 246.171875 291.148438 "/>
<path style=" stroke:none;fill-rule:nonzero;fill:rgb(74.804688%,57.226563%,0%);fill-opacity:1;" d="M 250.609375 301.28125 C 250.171875 298.191406 254.429688 299.261719 256.339844 299.109375 C 260.070313 299.851563 264.8125 300.050781 267.050781 303.589844 C 261.53125 303.851563 255.480469 304.480469 250.609375 301.28125 "/>
<path style=" stroke:none;fill-rule:nonzero;fill:rgb(74.804688%,57.226563%,0%);fill-opacity:1;" d="M 249.761719 305.480469 C 258.699219 306.921875 268.238281 305.210938 276.699219 309.148438 C 280.230469 311.21875 283.21875 314.121094 286.871094 316.019531 C 290.859375 318.230469 295.609375 318.269531 299.730469 320.140625 C 303.121094 322.3125 305.628906 325.578125 308.929688 327.878906 C 312.570313 330.878906 317.398438 332.53125 319.96875 336.699219 C 310.5 336.339844 305.21875 327.371094 297.609375 323.101563 C 296.238281 323.660156 294.921875 324.351563 293.488281 324.71875 C 286.679688 320.8125 280.601563 315.421875 273.039063 312.949219 C 266.929688 311.441406 260.601563 311.039063 254.339844 310.78125 C 251.480469 310.519531 248.898438 311.878906 246.269531 312.757813 C 247.378906 310.300781 248.621094 307.910156 249.761719 305.480469 "/>
<path style=" stroke:none;fill-rule:nonzero;fill:rgb(74.804688%,57.226563%,0%);fill-opacity:1;" d="M 306.328125 318.371094 C 310.5 318.21875 312.648438 322.011719 315.351563 324.5 C 318.78125 328.300781 324.769531 328.808594 327.160156 333.710938 C 321.589844 333.210938 316.058594 330.808594 312.578125 326.320313 C 310.601563 323.589844 308.410156 321.019531 306.328125 318.371094 "/>
<path style=" stroke:none;fill-rule:nonzero;fill:rgb(75.389099%,57.617188%,0%);fill-opacity:1;" d="M 216.980469 273.390625 C 222.710938 274.808594 227.960938 277.648438 233.648438 279.160156 C 235.761719 279.828125 238.128906 280.339844 239.628906 282.121094 C 240.570313 283.519531 240.449219 285.320313 240.820313 286.921875 C 234.519531 285.898438 227.96875 284.898438 222.46875 281.441406 C 219.621094 279.640625 217.988281 276.511719 216.980469 273.390625 "/>
<path style=" stroke:none;fill-rule:nonzero;fill:rgb(74.804688%,57.226563%,0%);fill-opacity:1;" d="M 242.75 282.160156 C 248.441406 283.058594 255.460938 284.261719 257.871094 290.328125 C 251.761719 290.371094 245.871094 287.511719 242.75 282.160156 "/>
<path style=" stroke:none;fill-rule:nonzero;fill:rgb(74.804688%,57.226563%,0%);fill-opacity:1;" d="M 324.378906 320.210938 C 325.578125 319.410156 326.511719 317.148438 328.21875 318.128906 C 336.679688 321.5 345.960938 321.519531 354.859375 322.839844 C 350.3125 326.371094 344.21875 326.28125 338.839844 325.171875 C 333.761719 324.378906 329.152344 321.988281 324.378906 320.210938 "/>
<path style=" stroke:none;fill-rule:nonzero;fill:rgb(74.414063%,57.226563%,0%);fill-opacity:1;" d="M 317.609375 309.261719 C 323.21875 308.640625 328.820313 310.269531 334.089844 312.039063 C 332.859375 313.089844 331.640625 314.160156 330.257813 315.019531 C 325.878906 313.652344 320.96875 312.621094 317.609375 309.261719 "/>
<g clip-path="url(#clip1)" clip-rule="nonzero">
<use xlink:href="#surface4" transform="matrix(1,0,0,1,312,314)" mask="url(#mask0)"/>
</g>
<path style=" stroke:none;fill-rule:nonzero;fill:rgb(75.389099%,57.617188%,0%);fill-opacity:1;" d="M 228.769531 341.3125 C 228.308594 341.164063 227.839844 341.050781 227.359375 340.972656 C 227.640625 341.222656 228.164063 341.296875 228.769531 341.3125 "/>
<path style=" stroke:none;fill-rule:nonzero;fill:rgb(75.389099%,57.617188%,0%);fill-opacity:1;" d="M 211.261719 366.855469 C 211.363281 363.6875 212.023438 360.578125 213.535156 357.773438 C 215.347656 354.410156 218.226563 351.578125 221.109375 349.117188 C 221.3125 348.941406 221.527344 348.785156 221.734375 348.617188 L 218.398438 343.3125 C 218.027344 343.652344 217.675781 344.019531 217.382813 344.441406 C 216.609375 345.570313 216.089844 346.851563 215.628906 348.128906 C 215.144531 349.480469 212.496094 359.226563 209.863281 355.601563 C 209.140625 354.605469 208.128906 351.8125 209.59375 350.953125 C 210.410156 350.472656 210.933594 351.074219 211.210938 351.828125 C 211.558594 352.285156 211.828125 352.910156 211.820313 353.480469 C 211.804688 354.253906 211.078125 354.484375 210.476563 354.121094 C 210.148438 353.921875 209.886719 353.605469 209.707031 353.269531 C 209.667969 353.199219 209.636719 353.128906 209.609375 353.058594 C 209.710938 353.855469 210.074219 354.714844 210.414063 355.214844 C 211.90625 357.410156 213.777344 351.886719 214.117188 350.871094 C 214.78125 348.894531 215.347656 346.855469 216.351563 345.011719 C 216.714844 344.339844 217.191406 343.625 217.765625 343.015625 C 216.039063 343.109375 214.292969 341.933594 213.359375 340.5625 C 212.703125 339.605469 212.394531 338.402344 212.417969 337.210938 C 212.398438 337.1875 212.378906 337.164063 212.359375 337.144531 C 211.054688 337.933594 210.042969 339.109375 209.101563 340.3125 C 208.109375 341.578125 207.183594 342.902344 206.390625 344.304688 C 204.863281 347.007813 203.839844 350.035156 204.019531 353.171875 C 204.21875 356.628906 205.6875 359.839844 207.144531 362.925781 C 208.429688 365.636719 209.8125 368.257813 211.464844 370.730469 C 211.246094 369.421875 211.21875 368.070313 211.261719 366.855469 "/>
<path style=" stroke:none;fill-rule:nonzero;fill:rgb(75.389099%,57.617188%,0%);fill-opacity:1;" d="M 247.738281 43.199219 C 251.21875 42.699219 254.730469 42.511719 258.238281 42.730469 C 260.390625 49.53125 262.148438 56.5 263.011719 63.589844 C 260.039063 64.410156 257.039063 65.089844 253.96875 65.410156 C 251.730469 58.058594 249.738281 50.621094 247.738281 43.199219 "/>
<path style=" stroke:none;fill-rule:nonzero;fill:rgb(75.389099%,57.617188%,0%);fill-opacity:1;" d="M 331.980469 51.480469 C 333.660156 52.71875 335.621094 53.320313 337.710938 52.96875 C 337.492188 52.070313 337.050781 50.261719 336.828125 49.359375 C 335.199219 50.03125 333.570313 50.730469 331.980469 51.480469 M 284.839844 49.648438 C 284.828125 50.851563 284.820313 52.050781 284.820313 53.25 C 293.28125 53.21875 301.742188 52.578125 310.199219 53.210938 C 310.148438 52.089844 310.109375 50.960938 310.070313 49.828125 C 301.75 48.601563 293.171875 48.5 284.839844 49.648438 M 274.75 44.929688 C 281.191406 43.769531 287.769531 44.019531 294.289063 43.640625 C 303.398438 43.699219 312.660156 42.960938 321.640625 44.949219 C 321.800781 47.75 321.601563 50.558594 321.449219 53.351563 C 325.230469 50.449219 328.410156 46.53125 333.101563 45.039063 C 337.757813 43.230469 342.890625 43.519531 347.699219 44.5 C 345.507813 50.808594 343.878906 57.820313 339.351563 62.898438 C 333.007813 62.640625 326.730469 61.359375 320.390625 61.050781 C 305.78125 60.488281 291.101563 60.398438 276.589844 62.378906 C 274.328125 64.851563 273.089844 68.53125 269.679688 69.730469 C 266.589844 70.550781 263.339844 70.019531 260.210938 69.730469 C 262.128906 67.378906 264.671875 65.628906 266.621094 63.308594 C 266.601563 57.820313 263.910156 52.730469 263.199219 47.308594 C 266.25 46.339844 269.390625 45.539063 272.621094 45.671875 C 273.511719 48.511719 274.359375 51.371094 275.71875 54.03125 C 275.910156 50.960938 275.289063 47.941406 274.75 44.929688 "/>
<path style=" stroke:none;fill-rule:nonzero;fill:rgb(75.389099%,57.617188%,0%);fill-opacity:1;" d="M 235.460938 45.570313 C 238.621094 44.890625 241.851563 43.789063 245.121094 44.359375 C 248.039063 51.050781 249.320313 58.398438 251.019531 65.480469 C 238.148438 68.371094 225.171875 71.039063 212.738281 75.53125 C 212.25 82.570313 206.980469 88.609375 200.089844 90.121094 C 200.640625 86.78125 203.160156 83.488281 201.75 80.050781 C 199.210938 74.410156 194.5 70.078125 191.949219 64.429688 C 195.160156 62.859375 198.46875 61.511719 201.871094 60.421875 C 204.019531 62.988281 205.378906 66.460938 208.359375 68.179688 C 210.988281 68.078125 213.308594 66.691406 215.628906 65.589844 C 212.898438 62.839844 209.640625 60.71875 206.75 58.160156 C 212.738281 54.601563 219.660156 52.960938 226.511719 52.109375 C 226.558594 55.890625 226.53125 59.671875 226.660156 63.449219 C 230.789063 62.769531 235.398438 62.328125 238.71875 59.570313 C 238.039063 54.808594 236.128906 50.328125 235.460938 45.570313 "/>
<path style=" stroke:none;fill-rule:nonzero;fill:rgb(75.389099%,57.617188%,0%);fill-opacity:1;" d="M 358.511719 52.789063 C 358.460938 53.378906 358.359375 54.570313 358.3125 55.160156 C 359.578125 55.148438 360.851563 55.140625 362.121094 55.121094 C 362.078125 54.550781 361.988281 53.410156 361.949219 52.839844 C 360.800781 52.820313 359.652344 52.800781 358.511719 52.789063 M 359.550781 46.789063 C 364.121094 44.789063 369.199219 44.789063 374.070313 45.378906 C 372.589844 49.78125 369.101563 53.128906 367.851563 57.628906 C 373.25 57.199219 374.359375 51.210938 377.390625 47.761719 C 380.128906 48.890625 382.828125 50.078125 385.53125 51.320313 C 382.050781 57.570313 378.269531 63.710938 373.929688 69.398438 C 369.5625 69.351563 365.5 67.601563 361.28125 66.691406 C 355.289063 65.210938 349.152344 64.410156 343.160156 62.921875 C 347.8125 56.859375 351.960938 49.488281 359.550781 46.789063 "/>
<path style=" stroke:none;fill-rule:nonzero;fill:rgb(75.389099%,57.617188%,0%);fill-opacity:1;" d="M 388.96875 52.421875 C 391.878906 53.238281 394.742188 54.351563 397.230469 56.109375 C 392.980469 61.609375 389.261719 67.558594 384.53125 72.671875 C 380.5625 77.21875 373.859375 76.75 368.511719 75.640625 C 370.929688 72.210938 375.890625 71.898438 377.929688 68.109375 C 381.421875 62.75 384.859375 57.328125 388.972656 52.421875 "/>
<path style=" stroke:none;fill-rule:nonzero;fill:rgb(75.389099%,57.617188%,0%);fill-opacity:1;" d="M 150.691406 92.339844 C 150.5625 93.230469 150.28125 95.03125 150.140625 95.921875 C 151.949219 95.441406 153.820313 95.011719 155.398438 93.941406 C 153.839844 93.351563 152.269531 92.828125 150.691406 92.339844 Z M 179.21875 70.621094 C 181.710938 69.050781 184.3125 67.359375 187.261719 66.871094 C 188.519531 66.609375 189.25 68.019531 190.0625 68.730469 C 193.011719 72.488281 195.761719 76.460938 198.0625 80.660156 C 195.019531 83.320313 191.0625 84.621094 187.578125 86.601563 C 176.53125 91.988281 165.8125 98.011719 155.410156 104.539063 C 152.328125 106.609375 149.441406 108.988281 146.050781 110.539063 C 145.730469 107.601563 146.429688 104.410156 145 101.679688 C 143.148438 97.988281 141.769531 93.53125 143.398438 89.519531 C 145.070313 86.421875 147.539063 83.761719 150.339844 81.648438 C 154.5 84.121094 157.511719 88.070313 161.351563 90.980469 C 163.800781 89.621094 166.328125 88.359375 168.519531 86.578125 C 166.398438 83.75 163.738281 81.328125 162.148438 78.128906 C 164.789063 76.488281 167.5625 75.070313 170.398438 73.808594 C 172.8125 76.128906 174.878906 78.839844 177.5625 80.871094 C 180.25 81.851563 182.21875 79.199219 184.171875 77.820313 C 182.421875 75.5 180.429688 73.300781 179.21875 70.621094 "/>
<path style=" stroke:none;fill-rule:nonzero;fill:rgb(74.804688%,57.617188%,0%);fill-opacity:1;" d="M 189.898438 93.382813 L 196.394531 95.050781 L 198.0625 88.550781 L 191.5625 86.886719 Z M 189.898438 93.382813 "/>
<path style=" stroke:none;fill-rule:nonzero;fill:rgb(74.804688%,57.617188%,0%);fill-opacity:1;" d="M 176.960938 98.335938 L 183.460938 100.003906 L 185.121094 93.503906 L 178.625 91.839844 Z M 176.960938 98.335938 "/>
<path style=" stroke:none;fill-rule:nonzero;fill:rgb(74.804688%,57.617188%,0%);fill-opacity:1;" d="M 169.648438 103.210938 L 176.144531 104.878906 L 177.8125 98.378906 L 171.3125 96.714844 Z M 169.648438 103.210938 "/>
<path style=" stroke:none;fill-rule:nonzero;fill:rgb(74.804688%,57.617188%,0%);fill-opacity:1;" d="M 440.078125 106.6875 L 441.890625 113.148438 L 448.347656 111.335938 L 446.535156 104.878906 Z M 440.078125 106.6875 "/>
<path style=" stroke:none;fill-rule:nonzero;fill:rgb(74.804688%,57.617188%,0%);fill-opacity:1;" d="M 357.566406 72.964844 L 361.054688 78.691406 L 366.785156 75.199219 L 363.292969 69.472656 Z M 357.566406 72.964844 "/>
<path style=" stroke:none;fill-rule:nonzero;fill:rgb(74.804688%,57.617188%,0%);fill-opacity:1;" d="M 348.925781 71.347656 L 352.417969 77.074219 L 358.144531 73.585938 L 354.65625 67.859375 Z M 348.925781 71.347656 "/>
<path style=" stroke:none;fill-rule:nonzero;fill:rgb(74.804688%,57.617188%,0%);fill-opacity:1;" d="M 361.429688 38.703125 L 364.921875 44.429688 L 370.648438 40.9375 L 367.15625 35.210938 Z M 361.429688 38.703125 "/>
<path style=" stroke:none;fill-rule:nonzero;fill:rgb(74.804688%,57.617188%,0%);fill-opacity:1;" d="M 352.789063 37.089844 L 356.28125 42.816406 L 362.007813 39.324219 L 358.519531 33.597656 Z M 352.789063 37.089844 "/>
<path style=" stroke:none;fill-rule:nonzero;fill:rgb(74.804688%,57.617188%,0%);fill-opacity:1;" d="M 137.011719 85.40625 L 143.511719 87.070313 L 145.175781 80.574219 L 138.679688 78.910156 Z M 137.011719 85.40625 "/>
<path style=" stroke:none;fill-rule:nonzero;fill:rgb(74.804688%,57.617188%,0%);fill-opacity:1;" d="M 129.699219 90.28125 L 136.199219 91.945313 L 137.863281 85.449219 L 131.363281 83.785156 Z M 129.699219 90.28125 "/>
<path style=" stroke:none;fill-rule:nonzero;fill:rgb(75.389099%,57.617188%,0%);fill-opacity:1;" d="M 434.890625 94.066406 C 432.847656 94.066406 431.195313 92.410156 431.195313 90.367188 C 431.195313 88.328125 432.847656 86.671875 434.890625 86.671875 C 436.933594 86.671875 438.585938 88.328125 438.585938 90.367188 C 438.585938 92.410156 436.933594 94.066406 434.890625 94.066406 M 426.375 82.335938 L 420.671875 78.160156 L 424.84375 72.453125 C 427.996094 74.757813 428.683594 79.183594 426.375 82.335938 M 414.800781 73.886719 C 416.46875 71.640625 419.640625 71.171875 421.886719 72.835938 L 418.871094 76.902344 Z M 398.589844 69.171875 C 398.46875 68.109375 398.359375 67.039063 398.261719 65.96875 C 399.972656 66.019531 401.679688 66.089844 403.390625 66.179688 C 403.109375 68.851563 400.851563 69.171875 398.589844 69.171875 M 465.699219 94.140625 C 462.898438 89.8125 458.03125 87.371094 453.160156 86.148438 C 455.300781 90.21875 459.070313 93.46875 459.480469 98.320313 C 455.0625 97.511719 451.789063 94.070313 448.300781 91.488281 C 447.511719 88.839844 447.039063 85.890625 444.679688 84.089844 C 441.191406 80.5 435.878906 80.730469 431.269531 80.628906 C 431.621094 77.488281 433.671875 74.101563 431.851563 71.089844 C 430.492188 68.21875 427.78125 66.339844 425 65 C 422.3125 63.710938 419.289063 62.261719 416.28125 63.371094 C 418.242188 65.730469 420.460938 67.859375 422.550781 70.109375 C 420.191406 69.828125 417.878906 68.980469 415.492188 69.191406 C 412.851563 69.839844 410.3125 70.839844 407.628906 71.339844 C 409.699219 66.398438 414.390625 63.191406 416.242188 58.109375 C 412.328125 59.050781 408.320313 59.46875 404.3125 59.101563 C 399.46875 58.738281 395.089844 61.710938 392.261719 65.410156 C 390.609375 67.671875 388.171875 69.519531 387.359375 72.261719 C 388.941406 74.03125 392.128906 74.679688 392.339844 77.371094 C 389.140625 79.121094 385.390625 78.800781 381.890625 79.25 C 384.890625 82.878906 389.859375 83.839844 394.339844 83.75 C 398.46875 83.441406 401.710938 80.589844 405.390625 79.03125 C 411.191406 80.789063 416.519531 84.121094 421.742188 87.210938 C 422.109375 89.199219 421.800781 91.269531 422.359375 93.230469 C 424.390625 97.679688 429.429688 100.371094 434.242188 100.199219 C 436.929688 100.21875 439.5 98.910156 442.191406 99.140625 C 449.699219 102.96875 455.148438 109.980469 462.921875 113.28125 C 463.101563 110.261719 462.550781 107.011719 464.128906 104.261719 C 465.570313 101.171875 467.710938 97.46875 465.699219 94.140625 "/>
</g>
</svg>
