<svg version="1.2" baseProfile="tiny-ps" xmlns="http://www.w3.org/2000/svg" viewBox="0 0 1616 481" width="1616" height="481">
	<title>Nexans_logo-svg</title>
	<style>
		tspan { white-space:pre }
		.shp0 { fill: #ffffff } 
		.shp1 { fill: #ee2426 } 
	</style>
	<g id="layer1">
		<g id="g1419">
			<g id="g75">
				<path id="path77" fill-rule="evenodd" class="shp0" d="M651.32 384.27C651.32 402.54 654.43 414.58 660.21 422.6C667.76 432.41 679.33 437.75 694.44 437.75C711.32 437.75 727.33 432.85 742.44 426.16C745.55 424.83 748.66 423.94 751.77 423.94C762.88 423.94 773.56 433.3 773.56 444.88C773.56 453.35 769.99 460.92 761.99 464.94C740.66 475.19 718 480.09 694.44 480.09C668.66 480.09 646.43 471.62 629.99 455.13C613.98 439.08 605.54 416.8 605.54 390.5L605.54 334.35C605.54 308.5 613.98 286.23 629.99 270.18C646.43 253.68 668.66 245.22 694.44 245.22C720.65 245.22 742.89 253.68 758.88 270.18C774.89 286.23 783.78 308.5 783.78 334.35L783.78 355.3C783.78 371.35 770.89 384.27 754.89 384.27L651.32 384.27ZM738 341.93C738 304.94 722.89 287.56 694.44 287.56C666.43 287.56 651.32 304.49 651.32 341.93L738 341.93Z" />
			</g>
			<g id="g79">
				<path id="path81" class="shp0" d="M899.68 400.76L852.56 470.28C848.12 476.52 841 480.09 833.89 480.09C821.89 480.09 810.78 469.83 810.78 456.91C810.78 452.46 812.12 448 814.78 443.99L873.01 361.54L816.12 281.31C813.45 277.31 812.12 272.84 812.12 268.39C812.12 256.36 822.34 245.22 835.23 245.22C842.33 245.22 849.45 248.78 853.9 255.03L899.68 322.32L945.45 255.03C949.91 248.34 957.46 245.22 964.57 245.22C977.01 245.22 987.24 255.47 987.24 268.39C987.24 272.84 985.9 277.31 983.24 281.31L926.35 361.54L984.57 443.99C987.68 448 989.01 452.46 989.01 456.91C989.01 469.39 978.35 480.09 965.46 480.09C958.35 480.09 951.24 476.97 946.8 470.28L899.68 400.76Z" />
			</g>
			<g id="g83">
				<path id="path85" fill-rule="evenodd" class="shp0" d="M1190.26 441.32C1190.26 453.79 1182.26 464.49 1170.69 468.5C1148.92 476.08 1123.59 480.09 1098.69 480.09C1071.57 480.09 1050.24 473.41 1035.13 460.47C1020.01 447.55 1012.02 429.27 1012.02 407.44C1012.02 385.6 1020.01 368.66 1035.13 356.19C1050.24 343.27 1071.57 336.59 1098.69 336.59L1144.48 336.59L1144.48 320.98C1144.48 302.26 1130.7 287.56 1107.58 287.56C1086.69 287.56 1075.14 290.23 1059.58 299.59C1056.02 301.82 1051.13 303.6 1047.13 303.6C1035.13 303.6 1025.36 294.68 1025.36 283.54C1025.36 275.53 1028.91 267.5 1036.47 263.04C1060.46 249.23 1081.36 245.22 1113.36 245.22C1163.14 245.22 1190.26 281.32 1190.26 320.98L1190.26 441.32ZM1144.48 378.91L1098.69 378.91C1060.02 378.91 1057.8 399.87 1057.8 407.44C1057.8 415.46 1060.02 437.75 1098.69 437.75C1113.8 437.75 1130.25 435.52 1144.48 431.96L1144.48 378.91Z" />
			</g>
			<g id="g87">
				<path id="path89" class="shp0" d="M1373.72 330.79C1373.72 303.6 1357.71 287.55 1330.16 287.55C1315.48 287.55 1300.82 289.79 1287.04 293.35L1287.04 456.91C1287.04 469.84 1276.82 480.09 1264.38 480.09C1251.48 480.09 1241.26 469.84 1241.26 456.91L1241.26 283.99C1241.26 271.51 1248.81 260.82 1260.81 256.81C1282.6 249.23 1306.15 245.21 1330.16 245.21C1356.38 245.21 1378.61 253.68 1394.61 270.18C1410.6 286.21 1419.5 308.5 1419.5 334.35L1419.5 456.91C1419.5 469.84 1409.27 480.09 1396.38 480.09C1383.49 480.09 1373.72 469.84 1373.72 456.91L1373.72 330.79Z" />
			</g>
			<g id="g91">
				<path id="path93" class="shp0" d="M1503.84 373.57C1479.84 364.65 1461.17 345.94 1461.17 312.51C1461.17 273.29 1493.62 245.22 1538.07 245.22C1568.29 245.22 1583.85 249.67 1598.51 256.36C1607.4 259.92 1613.18 267.95 1613.18 277.31C1613.18 288.89 1603.85 298.7 1591.85 298.7C1588.74 298.7 1584.3 297.81 1581.18 296.47C1570.06 291.12 1551.84 287.56 1537.18 287.56C1518.95 287.56 1506.95 296.47 1506.95 311.62C1506.95 323.21 1515.84 330.34 1525.17 333.46L1568.73 347.73C1598.07 357.52 1615.85 377.58 1615.85 410.11C1615.85 449.33 1584.3 480.09 1536.73 480.09C1510.5 480.09 1489.18 475.19 1472.72 467.61C1464.28 463.6 1458.94 456.02 1458.94 447.11C1458.94 435.52 1468.72 424.82 1481.18 424.82C1484.29 424.82 1488.29 426.16 1491.4 427.49C1503.4 433.74 1518.06 437.75 1537.63 437.75C1558.95 437.75 1570.06 429.72 1570.06 414.57C1570.06 398.08 1556.73 392.74 1540.29 386.94L1503.84 373.57Z" />
			</g>
			<g id="g167">
				<path id="path169" class="shp1" d="M702.97 10.26C702.97 10.26 677.41 0.45 642.79 0.45C580.06 0.45 547.05 34.79 531.04 56.87C515.89 77.76 506.34 99.52 499.14 129.63C492.25 158.39 491.15 194.38 489.96 223.05C486.97 295.12 493.7 421.95 462.7 421.95C446.77 421.95 435.9 397.39 432.23 387.98C430.73 384.16 418.61 348.87 403.63 282.16C394.3 240.6 372.14 140.48 365.7 117.99C362.73 107.62 355.22 80.11 340.62 56.25C321.5 24.99 288.86 9.22 260.54 9.22C233.04 9.22 207.63 28.22 198.3 37.44C169.89 65.5 160.62 106.48 157.63 122.75C154.4 140.32 150.43 177.03 150.43 177.03C144.73 220.79 135.2 296.62 133.04 312.51C121.93 394.3 98.72 407.5 76.35 414.79C71.09 416.5 61.02 417.3 57.56 417.3C43 417.3 31.46 413.06 31.46 413.06C29.88 412.44 26.94 411.26 23.51 411.26C21.51 411.26 19.61 411.65 17.86 412.43C13.14 414.48 11.01 417.32 10.27 418.64C1.16 432.68 0.45 447.75 0.45 452.02C0.45 462.34 6.74 465.81 8.64 466.62C9.19 466.86 22.11 472.38 41.15 475.34C98.33 484.22 134.12 450.47 143.8 441.01C152.91 432.11 168.64 413.76 179.01 377.9C185.62 355.03 189.47 332.59 192.39 307.66C194.58 288.86 208.98 164.35 211.93 146.92C215.03 128.58 219.73 109.53 228.76 92.11C235.14 79.8 246.1 66.62 262.24 66.62C268.46 66.62 274.17 68.52 279.2 72.26C294.69 83.76 303.93 110.94 307.01 122.69C311.14 138.46 340.71 263.15 345.38 284.86C376.87 431.01 398.09 456.37 427.44 471.01C444.24 479.39 477.26 488.72 507.19 465.05C540.78 438.5 541.66 386.67 543.95 355.19C546.29 322.77 546.38 296.83 546.54 285.19C548.15 169.43 549.08 133.77 579.9 89.13C596.49 65.1 630.51 48.12 686.92 65.65C688.29 66.07 691.33 66.81 693.84 66.81C704.8 66.81 709.33 55.68 712.16 44.61C714.08 37.13 719.39 15.58 702.97 10.26Z" />
			</g>
		</g>
	</g>
</svg>